<svg xmlns:dc="http://purl.org/dc/elements/1.1/" xmlns:cc="http://creativecommons.org/ns#" xmlns:rdf="http://www.w3.org/1999/02/22-rdf-syntax-ns#" xmlns:svg="http://www.w3.org/2000/svg" xmlns="http://www.w3.org/2000/svg" viewBox="0 0 672 480" height="300" width="520" xml:space="preserve" version="1.1" id="svg2"><metadata id="metadata8"><rdf:rdf><cc:work rdf:about=""><dc:format>image/svg+xml</dc:format><dc:type rdf:resource="http://purl.org/dc/dcmitype/StillImage"></dc:type></cc:work></rdf:rdf></metadata><defs id="defs6"><clipPath id="clipPath22" clipPathUnits="userSpaceOnUse"><path id="path24" d="M 0,360 504,360 504,0 0,0 0,360 Z"></path></clipPath></defs><g transform="matrix(1.3333333,0,0,-1.3333333,0,480)" id="g10"><path id="path12" style="fill:#ffffff;fill-opacity:1;fill-rule:nonzero;stroke:#0288bb;stroke-width:4;stroke-linecap:butt;stroke-linejoin:miter;stroke-miterlimit:10;stroke-dasharray:none;stroke-opacity:1" d="m 149.7,96.226 307.955,0 0,187.605 -307.955,0 0,-187.605 z"></path><g transform="translate(336.7241,87.1956)" id="g14"><path id="path16" style="fill:#ffffff;fill-opacity:1;fill-rule:nonzero;stroke:#0288bb;stroke-width:4;stroke-linecap:butt;stroke-linejoin:miter;stroke-miterlimit:10;stroke-dasharray:none;stroke-opacity:1" d="m 0,0 1.844,-15.201 -67.021,0 L -63.333,0"></path></g><g id="g18"><g clip-path="url(#clipPath22)" id="g20"><path id="path26" style="fill:#ffffff;fill-opacity:1;fill-rule:nonzero;stroke:none" d="m 453.127,101.955 -294.327,0 0,177.573 294.327,0 0,-177.573 z m 6.224,192.692 -307.697,0 c -4.325,0 -7.831,-3.506 -7.831,-7.831 l 0,-191.387 c 0,-4.325 3.506,-7.831 7.831,-7.831 l 307.697,0 c 4.325,0 7.831,3.506 7.831,7.831 l 0,191.387 c 0,4.325 -3.506,7.831 -7.831,7.831"></path><path id="path28" style="fill:none;stroke:#0288bb;stroke-width:4;stroke-linecap:butt;stroke-linejoin:miter;stroke-miterlimit:10;stroke-dasharray:none;stroke-opacity:1" d="m 453.127,101.955 -294.327,0 0,177.573 294.327,0 0,-177.573 z m 6.224,192.692 -307.697,0 c -4.325,0 -7.831,-3.506 -7.831,-7.831 l 0,-191.387 c 0,-4.325 3.506,-7.831 7.831,-7.831 l 307.697,0 c 4.325,0 7.831,3.506 7.831,7.831 l 0,191.387 c 0,4.325 -3.506,7.831 -7.831,7.831 z"></path><path id="path30" style="fill:#ffffff;fill-opacity:1;fill-rule:nonzero;stroke:#96d4ff;stroke-width:4;stroke-linecap:butt;stroke-linejoin:miter;stroke-miterlimit:10;stroke-dasharray:none;stroke-opacity:1" class="transparent animated vpc-svg fadeIn fadeIn" data-vp-add-class="fadeIn" d="m 439.78,246.574 -267.554,0 0,18.529 267.554,0 0,-18.529 z"></path><path id="path32" style="fill:#ffffff;fill-opacity:1;fill-rule:nonzero;stroke:#96d4ff;stroke-width:4;stroke-linecap:butt;stroke-linejoin:miter;stroke-miterlimit:10;stroke-dasharray:none;stroke-opacity:1" class="transparent animated vpc-svg fadeIn fadeIn" data-vp-add-class="fadeIn" d="m 439.78,211.101 -127.689,0 0,20.829 127.689,0 0,-20.829 z"></path><path id="path34" style="fill:#ffffff;fill-opacity:1;fill-rule:nonzero;stroke:#96d4ff;stroke-width:4;stroke-linecap:butt;stroke-linejoin:miter;stroke-miterlimit:10;stroke-dasharray:none;stroke-opacity:1" class="transparent animated vpc-svg fadeIn fadeIn" data-vp-add-class="fadeIn" d="m 439.78,116.651 -127.689,0 0,79.107 127.689,0 0,-79.107 z"></path><g transform="translate(161.8384,237.5872)" id="g36"><path id="path38" style="fill:#ffffff;fill-opacity:1;fill-rule:nonzero;stroke:none" d="m 0,0 0.365,1.083 10.366,0 L 11.096,0 0,0 Z"></path></g><g transform="translate(161.8384,237.5872)" id="g40"><path id="path42" style="fill:none;stroke:#0288bb;stroke-width:1.07700002;stroke-linecap:butt;stroke-linejoin:miter;stroke-miterlimit:10;stroke-dasharray:none;stroke-opacity:1" d="m 0,0 0.365,1.083 10.366,0 L 11.096,0 0,0 Z"></path></g><g transform="translate(181.2545,80.6501)" id="g44"><path id="path46" style="fill:#ffffff;fill-opacity:1;fill-rule:nonzero;stroke:none" d="m 0,0 c 0,-5.044 -4.089,-9.132 -9.132,-9.132 l -101.757,0 c -5.044,0 -9.133,4.088 -9.133,9.132 l 0,147.981 c 0,5.043 4.089,9.132 9.133,9.132 l 101.757,0 c 5.043,0 9.132,-4.089 9.132,-9.132 L 0,0 Z"></path></g><g transform="translate(181.2545,80.6501)" id="g48"><path id="path50" style="fill:none;stroke:#0288bb;stroke-width:4;stroke-linecap:butt;stroke-linejoin:miter;stroke-miterlimit:10;stroke-dasharray:none;stroke-opacity:1" d="m 0,0 c 0,-5.044 -4.089,-9.132 -9.132,-9.132 l -101.757,0 c -5.044,0 -9.133,4.088 -9.133,9.132 l 0,147.981 c 0,5.043 4.089,9.132 9.133,9.132 l 101.757,0 c 5.043,0 9.132,-4.089 9.132,-9.132 L 0,0 Z"></path></g><g transform="translate(120.1088,80.1986)" id="g52"><path id="path54" style="fill:#ffffff;fill-opacity:1;fill-rule:nonzero;stroke:none" d="m 0,0 c -2.651,0 -4.801,2.149 -4.801,4.8 0,2.652 2.15,4.801 4.801,4.801 C 2.651,9.601 4.8,7.452 4.8,4.8 4.8,2.149 2.651,0 0,0"></path></g><g transform="translate(120.1088,80.1986)" id="g56"><path id="path58" style="fill:none;stroke:#0288bb;stroke-width:4;stroke-linecap:butt;stroke-linejoin:miter;stroke-miterlimit:10;stroke-dasharray:none;stroke-opacity:1" d="m 0,0 c -2.651,0 -4.801,2.149 -4.801,4.8 0,2.652 2.15,4.801 4.801,4.801 C 2.651,9.601 4.8,7.452 4.8,4.8 4.8,2.149 2.651,0 0,0 Z"></path></g><path id="path60" style="fill:#ffffff;fill-opacity:1;fill-rule:nonzero;stroke:#0288bb;stroke-width:4;stroke-linecap:butt;stroke-linejoin:miter;stroke-miterlimit:10;stroke-dasharray:none;stroke-opacity:1" d="m 168.079,99.251 -93.47,0 0,118.015 93.47,0 0,-118.015 z"></path><path id="path62" style="fill:#ffffff;fill-opacity:1;fill-rule:nonzero;stroke:#96d4ff;stroke-width:4;stroke-linecap:butt;stroke-linejoin:miter;stroke-miterlimit:10;stroke-dasharray:none;stroke-opacity:1" class="transparent animated vpc-svg fadeIn fadeIn" data-vp-add-class="fadeIn" d="m 158.446,138.813 -74.404,0 0,65.772 74.404,0 0,-65.772 z"></path><g transform="translate(84.1422,101.8864)" id="g64"><path id="path66" style="fill:#ffffff;fill-opacity:1;fill-rule:nonzero;stroke:#96d4ff;stroke-width:4;stroke-linecap:butt;stroke-linejoin:miter;stroke-miterlimit:10;stroke-dasharray:none;stroke-opacity:1" class="transparent animated vpc-svg fadeIn fadeIn" data-vp-add-class="fadeIn" d="m 0,0 0,28.367 74.404,0 0,-28.367"></path></g><g transform="translate(84.1422,120.2755)" id="g68"><path id="path70" style="fill:#ffffff;fill-opacity:1;fill-rule:nonzero;stroke:#96d4ff;stroke-width:4;stroke-linecap:butt;stroke-linejoin:miter;stroke-miterlimit:10;stroke-dasharray:none;stroke-opacity:1" class="transparent animated vpc-svg fadeIn fadeIn" data-vp-add-class="fadeIn" d="M 0,0 74.217,0"></path></g><g transform="translate(182.7396,231.9295)" id="g72"><path id="path74" style="fill:#ffffff;fill-opacity:1;fill-rule:nonzero;stroke:#96d4ff;stroke-width:4;stroke-linecap:butt;stroke-linejoin:miter;stroke-miterlimit:10;stroke-dasharray:none;stroke-opacity:1" class="transparent animated vpc-svg fadeIn fadeIn" data-vp-add-class="fadeIn" d="m 0,0 115.583,0 0,-115.278 -114.582,0"></path></g><g transform="translate(76.301,175.3721)" id="g76"><path id="path78" style="fill:#ffffff;fill-opacity:1;fill-rule:nonzero;stroke:none" d="m 0,0 0.274,0.811 7.76,0 L 8.307,0 0,0 Z"></path></g><g transform="translate(76.301,175.3721)" id="g80"><path id="path82" style="fill:none;stroke:#0288bb;stroke-width:1.07700002;stroke-linecap:butt;stroke-linejoin:miter;stroke-miterlimit:10;stroke-dasharray:none;stroke-opacity:1" d="m 0,0 0.274,0.811 7.76,0 L 8.307,0 0,0 Z"></path></g><g transform="translate(90.8368,78.3548)" id="g84"><path id="path86" style="fill:#ffffff;fill-opacity:1;fill-rule:nonzero;stroke:none" d="m 0,0 c 0,-3.776 -3.061,-6.837 -6.837,-6.837 l -40.345,0 c -3.776,0 -6.837,3.061 -6.837,6.837 l 0,90.312 c 0,3.776 3.061,6.837 6.837,6.837 l 40.345,0 C -3.061,97.149 0,94.088 0,90.312 L 0,0 Z"></path></g><g transform="translate(90.8368,78.3548)" id="g88"><path id="path90" style="fill:none;stroke:#0288bb;stroke-width:4;stroke-linecap:butt;stroke-linejoin:miter;stroke-miterlimit:10;stroke-dasharray:none;stroke-opacity:1" d="m 0,0 c 0,-3.776 -3.061,-6.837 -6.837,-6.837 l -40.345,0 c -3.776,0 -6.837,3.061 -6.837,6.837 l 0,90.312 c 0,3.776 3.061,6.837 6.837,6.837 l 40.345,0 C -3.061,97.149 0,94.088 0,90.312 L 0,0 Z"></path></g><g transform="translate(62.9776,79.0229)" id="g92"><path id="path94" style="fill:#ffffff;fill-opacity:1;fill-rule:nonzero;stroke:none" d="m 0,0 c -1.985,0 -3.594,1.609 -3.594,3.594 0,1.985 1.609,3.594 3.594,3.594 1.985,0 3.594,-1.609 3.594,-3.594 C 3.594,1.609 1.985,0 0,0"></path></g><g transform="translate(62.9776,79.0229)" id="g96"><path id="path98" style="fill:none;stroke:#0288bb;stroke-width:4;stroke-linecap:butt;stroke-linejoin:miter;stroke-miterlimit:10;stroke-dasharray:none;stroke-opacity:1" d="m 0,0 c -1.985,0 -3.594,1.609 -3.594,3.594 0,1.985 1.609,3.594 3.594,3.594 1.985,0 3.594,-1.609 3.594,-3.594 C 3.594,1.609 1.985,0 0,0 Z"></path></g><path id="path100" style="fill:#ffffff;fill-opacity:1;fill-rule:nonzero;stroke:#0288bb;stroke-width:4;stroke-linecap:butt;stroke-linejoin:miter;stroke-miterlimit:10;stroke-dasharray:none;stroke-opacity:1" d="m 82.839,94.795 -37.874,0 0,65.363 37.874,0 0,-65.363 z"></path><path id="path102" style="fill:#ffffff;fill-opacity:1;fill-rule:nonzero;stroke:#96d4ff;stroke-width:4;stroke-linecap:butt;stroke-linejoin:miter;stroke-miterlimit:10;stroke-dasharray:none;stroke-opacity:1" class="transparent animated vpc-svg fadeIn fadeIn" data-vp-add-class="fadeIn" d="m 74.228,122.038 -20.802,0 0,28.938 20.802,0 0,-28.938 z"></path><g transform="translate(53.4262,97.3435)" id="g104"><path id="path106" style="fill:#ffffff;fill-opacity:1;fill-rule:nonzero;stroke:#96d4ff;stroke-width:4;stroke-linecap:butt;stroke-linejoin:miter;stroke-miterlimit:10;stroke-dasharray:none;stroke-opacity:1" class="transparent animated vpc-svg fadeIn fadeIn" data-vp-add-class="fadeIn" d="m 0,0 0,14.638 20.802,0 0,-14.638"></path></g></g></g></g></svg>