<?xml version="1.0" encoding="utf-8"?>
<!-- Generator: Adobe Illustrator 18.0.0, SVG Export Plug-In . SVG Version: 6.00 Build 0)  -->
<!DOCTYPE svg PUBLIC "-//W3C//DTD SVG 1.1//EN" "http://www.w3.org/Graphics/SVG/1.1/DTD/svg11.dtd">
<svg version="1.1" id="Layer_1" xmlns="http://www.w3.org/2000/svg" xmlns:xlink="http://www.w3.org/1999/xlink" x="0px" y="0px"
	 viewBox="0 0 335 235" enable-background="new 0 0 335 235" xml:space="preserve">
<g id="layer1" transform="translate(-400.50845,101.60621)">
	<g id="g3557" transform="translate(17.716538,17.750166)">
		<path id="path3435" fill="#254087" d="M518.3,21.3h7.9v-32h-7.9V21.3z"/>
		<path id="path3439" fill="#254087" d="M503.7,2.7c2.9,0,3.7,2.6,3.7,4.1c0,0-7.7,0-7.7,0C499.7,4.7,501.2,2.7,503.7,2.7z
			 M512,14.8c-1.3,0.4-3.2,1-5.6,1c-3.4,0-6.1-1.1-6.5-3.8h14.5c0.1-0.5,0.3-1.4,0.3-3.1c0-6.1-3-11.7-10.8-11.7
			c-7.6,0-11.6,5.9-11.6,12.6c0,7.6,5.3,12,12.8,12c4.7,0,6.8-1.1,8.1-1.5L512,14.8"/>
		<path id="path3443" fill="#254087" d="M616.6,2.7c2.9,0,3.7,2.6,3.7,4.1c0,0-7.7,0-7.7,0C612.6,4.7,614.1,2.7,616.6,2.7z
			 M624.9,14.8c-1.3,0.4-3.2,1-5.6,1c-3.4,0-6.1-1.1-6.5-3.8h14.5c0.1-0.5,0.3-1.4,0.3-3.1c0-6.1-3-11.7-10.8-11.7
			c-7.5,0-11.6,5.9-11.6,12.6c0,7.6,5.4,12,12.8,12c4.7,0,6.8-1.1,8.1-1.5L624.9,14.8"/>
		<path id="path3447" fill="#254087" d="M542,15.9c-2.6,0-4.2-2.5-4.2-6.4c0-3.1,1.1-6.4,4.3-6.4c3,0,4.1,3.4,4.1,6.4
			C546.1,13.4,544.5,15.9,542,15.9z M541.9,21.8c6.1,0,12.3-3.9,12.3-12.5c0-5.1-3-12-12-12c-9.2,0-12.5,6.7-12.5,12.4
			C529.7,16.9,534.7,21.8,541.9,21.8"/>
		<path id="path3449" fill="#254087" d="M557.7,21.3h7.9V-2.3h-7.9V21.3z"/>
		<path id="path3453" fill="#254087" d="M590.1-8.7l0,6.4l-3,0v5.8l3,0v9.7c0,5.2,2.5,8.5,8,8.5c2.5,0,5.1-0.6,5.6-0.8
			c0,0,0-6.1,0-6.1c-0.3,0.1-1.7,0.4-2.7,0.4c-1.1,0-3.1-0.3-3.1-3.3V3.5h5.1v-5.9c0,0-4.4,0-5.1,0c0-0.7,0-7.3,0-7.3L590.1-8.7"/>
		<path id="path3457" fill="#254087" d="M571.8-8.7l0,6.4l-3,0v5.8l3,0v9.7c0,5.2,2.5,8.5,8,8.5c2.5,0,5.1-0.6,5.6-0.8
			c0,0,0-6.1,0-6.1c-0.3,0.1-1.7,0.4-2.7,0.4c-1.1,0-3.1-0.3-3.1-3.3V3.5h5.1v-5.9c0,0-4.4,0-5.1,0c0-0.7,0-7.3,0-7.3L571.8-8.7"/>
		<path id="path3459" fill="#254087" d="M557.7-4.6h7.9v-6.1h-7.9V-4.6z"/>
		<path id="path3463" fill="#254087" d="M461.7,21.3l9.3,0c13.6,0,18.8-8.1,18.8-15.9c0-10.6-6.8-16.6-19-16.6
			c-3.4,0-7.1,0.1-9.1,0.4L461.7,21.3z M472.2,15c-1.1,0-2.1,0.1-2.7,0c0,0,0-19.6,0-19.7c0.6-0.1,1.6-0.1,2.8-0.1
			c4.6,0,9.4,3,9.4,10C481.7,13.2,475.6,15,472.2,15"/>
		<path id="path3467" fill="#96CB3C" d="M630.1,17.4c0-2.4,2-4.4,4.4-4.4c2.4,0,4.4,2,4.4,4.4c0,2.4-2,4.4-4.4,4.4
			C632.1,21.8,630.1,19.8,630.1,17.4"/>
	</g>
</g>
<g>
	<polygon opacity="0.2" fill="#BCBEC0" stroke="#636466" stroke-width="0.75" enable-background="new    " points="92.5,13.7 
		242.5,13.7 242.5,64.6 103.5,79.5 	"/>
	
		<linearGradient id="SVGID_1_" gradientUnits="userSpaceOnUse" x1="163.1977" y1="245.2359" x2="174.3328" y2="179.8172" gradientTransform="matrix(1 0 0 -1 0 236)">
		<stop  offset="0" style="stop-color:#545757"/>
		<stop  offset="1" style="stop-color:#1F2323"/>
	</linearGradient>
	<polygon fill="url(#SVGID_1_)" points="238.4,60.9 107,74.9 97.4,17.8 238.4,17.9 	"/>
	<polygon opacity="0.3" fill="#FFFFFF" enable-background="new    " points="99.5,53.7 92.8,13.9 146.2,13.9 92.5,13.7 	"/>
	<g>
		
			<image overflow="visible" opacity="0.5" enable-background="new    " width="1050" height="196" xlink:href="16FFD3D3F8062306.png"  transform="matrix(0.1197 0 0 0.1169 106.2783 29.9711)">
		</image>
		<g>
			<g>
				<g>
					
						<linearGradient id="SVGID_2_" gradientUnits="userSpaceOnUse" x1="117.0902" y1="203.9398" x2="117.0902" y2="185.9577" gradientTransform="matrix(1 0 0 -1 0 236)">
						<stop  offset="0" style="stop-color:#FFFFFF"/>
						<stop  offset="1" style="stop-color:#DCDDDE"/>
					</linearGradient>
					<path fill="url(#SVGID_2_)" d="M117.1,50.8c-2.8,0-5.2-1-7.1-3c-1.8-1.9-2.7-4.3-2.7-7.1c0-2.6,1-5,2.9-6.9
						c1.9-1.9,4.2-2.8,6.9-2.8c4.1,0,7.6,2.5,9.1,6.5H121c-1.2-1.3-2.4-1.9-3.9-1.9c-2.8,0-5.1,2.3-5.1,5.1c0,3,2.3,5.4,5.1,5.4
						c1.8,0,3.4-1,4.4-2.6l0.1-0.1H116v-3.7h10.8c0,0.4,0,0.8,0,1.2c0,2.1-0.5,4-1.6,5.6C123.4,49.2,120.3,50.8,117.1,50.8z"/>
					<path fill="#FFFFFF" d="M117.2,31.1c4,0,7.5,2.4,9,6.3h-5.1c-1.2-1.3-2.5-1.9-4-1.9c-2.8,0-5.1,2.3-5.1,5.2
						c0,3,2.4,5.5,5.1,5.5c1.9,0,3.5-1,4.4-2.6l0.1-0.2h-0.2h-5.3v-3.6h10.7c0,0.4,0,0.8,0,1.1c0,2.1-0.5,3.9-1.6,5.5
						c-1.8,2.6-4.8,4.2-8.1,4.2c-2.8,0-5.1-1-7-3c-1.8-1.9-2.7-4.2-2.7-7c0-2.6,1-5,2.9-6.8C112.2,32,114.5,31.1,117.2,31.1
						 M117.2,31c-2.7,0-5.1,1-7,2.8c-1.9,1.9-2.9,4.3-2.9,6.9c0,2.8,0.9,5.2,2.7,7.1c1.9,2,4.3,3,7.1,3c3.3,0,6.3-1.6,8.2-4.3
						c1.1-1.6,1.6-3.4,1.6-5.6c0-0.4,0-0.8-0.1-1.3h-10.9v3.8h5.5c-0.9,1.7-2.5,2.6-4.3,2.6c-2.6,0-5-2.3-5-5.4c0-2.7,2.2-5,5-5
						c1.5,0,2.7,0.6,3.9,1.9h5.3C124.8,33.5,121.2,31,117.2,31L117.2,31z"/>
				</g>
				<g>
					
						<linearGradient id="SVGID_3_" gradientUnits="userSpaceOnUse" x1="135.1255" y1="203.938" x2="135.1255" y2="185.9602" gradientTransform="matrix(1 0 0 -1 0 236)">
						<stop  offset="0" style="stop-color:#FFFFFF"/>
						<stop  offset="1" style="stop-color:#DCDDDE"/>
					</linearGradient>
					<path fill="url(#SVGID_3_)" d="M136.5,50.4l-3.8-6.3v6.3h-4.6v-19h6.3c2.1,0,3.6,0.2,4.8,1c1.7,1.2,2.6,3,2.6,5.3
						c0,3.1-1.6,5.4-4.3,6.1l-0.1,0l4.7,6.5L136.5,50.4L136.5,50.4z M132.7,40.2h1c2.5,0,3.5-0.7,3.5-2.4c0-1.6-1-2.3-3.1-2.3h-1.4
						L132.7,40.2L132.7,40.2z"/>
					<path fill="#FFFFFF" d="M134.4,31.5c2.1,0,3.6,0.2,4.8,1c1.7,1.2,2.5,2.9,2.5,5.3c0,3-1.6,5.3-4.2,6l-0.2,0l0.1,0.1l4.5,6.4
						h-5.5l-3.6-6.1l-0.2-0.4v0.5v6h-4.4V31.5H134.4 M132.6,40.3h0.1h0.9c2.5,0,3.6-0.7,3.6-2.4c0-1.6-1-2.4-3.2-2.4h-1.3h-0.1v0.1
						v4.5L132.6,40.3 M134.4,31.3h-6.4v19.1h4.7v-6.2l3.7,6.2h5.8l-4.7-6.6c2.7-0.8,4.3-3.1,4.3-6.2c0-2.4-0.9-4.2-2.6-5.4
						C138,31.5,136.5,31.3,134.4,31.3L134.4,31.3z M132.8,40.2v-4.5h1.3c2.1,0,3.1,0.6,3.1,2.2c0,1.7-1.1,2.3-3.4,2.3L132.8,40.2
						L132.8,40.2z"/>
				</g>
				<g>
					
						<linearGradient id="SVGID_4_" gradientUnits="userSpaceOnUse" x1="152.438" y1="203.9398" x2="152.438" y2="185.9585" gradientTransform="matrix(1 0 0 -1 0 236)">
						<stop  offset="0" style="stop-color:#FFFFFF"/>
						<stop  offset="1" style="stop-color:#DCDDDE"/>
					</linearGradient>
					<path fill="url(#SVGID_4_)" d="M152.5,50.8c-2.8,0-5.2-1-7.1-3c-1.8-1.9-2.7-4.3-2.7-7.1c0-2.6,1-5,2.9-6.9
						c1.9-1.8,4.2-2.8,6.9-2.8c2.5,0,5,1,6.8,2.8c1.9,1.9,2.9,4.3,2.9,6.9c0,2.7-1,5.2-2.8,7C157.6,49.7,155.1,50.8,152.5,50.8z
						 M152.5,35.7c-2.9,0-5.1,2.2-5.1,5.1c0,2.9,2.3,5.4,5.1,5.4c2.9,0,5-2.3,5-5.4C157.5,38,155.3,35.7,152.5,35.7z"/>
					<path fill="#FFFFFF" d="M152.5,31.1c2.5,0,4.9,1,6.7,2.8c1.9,1.9,2.9,4.3,2.9,6.9c0,2.7-0.9,5.1-2.7,7c-1.8,1.9-4.3,2.9-7,2.9
						c-2.8,0-5.2-1-7-3c-1.8-1.9-2.7-4.2-2.7-7c0-2.6,1-5,2.9-6.8C147.5,32.1,149.8,31.1,152.5,31.1 M152.5,46.2
						c2.9,0,5.1-2.3,5.1-5.5c0-2.8-2.3-5.2-5.1-5.2c-2.9,0-5.2,2.3-5.2,5.2C147.3,43.7,149.7,46.2,152.5,46.2 M152.5,31
						c-2.7,0-5.1,0.9-7,2.8c-1.9,1.9-2.9,4.3-2.9,6.9c0,2.8,0.9,5.2,2.7,7.1c1.9,2,4.3,3,7.1,3c2.7,0,5.2-1,7.1-3
						c1.8-1.9,2.8-4.3,2.8-7.1c0-2.6-1-5.1-3-7C157.5,32,155,31,152.5,31L152.5,31z M152.5,46.1c-2.6,0-5-2.3-5-5.3
						c0-2.8,2.2-5,5.1-5c2.7,0,4.9,2.2,4.9,5C157.4,43.9,155.2,46.1,152.5,46.1L152.5,46.1z"/>
				</g>
				<g>
					
						<linearGradient id="SVGID_5_" gradientUnits="userSpaceOnUse" x1="170.5282" y1="203.9378" x2="170.5282" y2="185.9587" gradientTransform="matrix(1 0 0 -1 0 236)">
						<stop  offset="0" style="stop-color:#FFFFFF"/>
						<stop  offset="1" style="stop-color:#DCDDDE"/>
					</linearGradient>
					<path fill="url(#SVGID_5_)" d="M170.4,50.7c-4.4,0-6.9-2.7-6.9-7.4V31.4h4.6v11.7c0,2.3,0.7,3.3,2.3,3.3c1.7,0,2.5-1.1,2.5-3.3
						V31.4h4.6v11.9C177.5,47.9,174.8,50.7,170.4,50.7z"/>
					<path fill="#FFFFFF" d="M177.4,31.5v11.9c0,4.5-2.7,7.3-7,7.3c-4.3,0-6.8-2.7-6.8-7.3V31.5h4.5v11.7c0,2.3,0.8,3.4,2.4,3.4
						c1.7,0,2.5-1.1,2.5-3.4V31.5H177.4 M177.6,31.3h-4.7v11.8c0,2.2-0.8,3.3-2.4,3.3c-1.6,0-2.3-1.1-2.3-3.3V31.3h-4.7v12
						c0,4.8,2.6,7.5,6.9,7.5c4.3,0,7.1-2.8,7.1-7.5L177.6,31.3L177.6,31.3z"/>
				</g>
				<g>
					
						<linearGradient id="SVGID_6_" gradientUnits="userSpaceOnUse" x1="185.81" y1="203.938" x2="185.81" y2="185.9602" gradientTransform="matrix(1 0 0 -1 0 236)">
						<stop  offset="0" style="stop-color:#FFFFFF"/>
						<stop  offset="1" style="stop-color:#DCDDDE"/>
					</linearGradient>
					<path fill="url(#SVGID_6_)" d="M179,50.4v-19h6.3c2.1,0,3.6,0.2,4.8,1c1.7,1.2,2.6,3,2.6,5.3c0,2.4-1.1,4.5-3,5.6
						c-1.2,0.7-2.7,0.9-4.7,0.9h-1.4v6.2C183.5,50.4,179,50.4,179,50.4z M183.6,40.2h0.9c2.5,0,3.5-0.7,3.5-2.4c0-1.6-1-2.3-3.1-2.3
						h-1.3V40.2z"/>
					<path fill="#FFFFFF" d="M185.3,31.5c2.1,0,3.6,0.2,4.8,1c1.7,1.2,2.5,2.9,2.5,5.3c0,2.4-1.1,4.4-3,5.6
						c-1.2,0.7-2.6,0.8-4.6,0.8h-1.3h-0.1v0.1v6H179V31.5H185.3 M183.5,40.3h0.1h0.9c2.5,0,3.6-0.7,3.6-2.4c0-1.6-1-2.4-3.2-2.4
						h-1.2h-0.1v0.1v4.5V40.3 M185.3,31.3h-6.4v19.1h4.7v-6.2h1.3c2,0,3.5-0.1,4.7-0.9c1.9-1.2,3-3.2,3-5.7c0-2.4-0.9-4.2-2.6-5.4
						C188.8,31.5,187.3,31.3,185.3,31.3L185.3,31.3z M183.7,40.2v-4.5h1.2c2.1,0,3.1,0.6,3.1,2.2c0,1.7-1.1,2.3-3.4,2.3L183.7,40.2
						L183.7,40.2z"/>
				</g>
				<g>
					
						<linearGradient id="SVGID_7_" gradientUnits="userSpaceOnUse" x1="203.1602" y1="203.9398" x2="203.1602" y2="185.9585" gradientTransform="matrix(1 0 0 -1 0 236)">
						<stop  offset="0" style="stop-color:#FFFFFF"/>
						<stop  offset="1" style="stop-color:#DCDDDE"/>
					</linearGradient>
					<path fill="url(#SVGID_7_)" d="M203.2,50.8c-2.8,0-5.2-1-7.1-3c-1.8-1.9-2.7-4.3-2.7-7.1c0-2.6,1-5,2.9-6.9
						c1.9-1.8,4.2-2.8,6.9-2.8c2.5,0,5,1,6.8,2.8c1.9,1.9,2.9,4.3,2.9,6.9c0,2.7-1,5.2-2.8,7C208.3,49.7,205.9,50.8,203.2,50.8z
						 M203.2,35.7c-2.9,0-5.2,2.2-5.2,5.1c0,2.9,2.3,5.4,5.1,5.4c2.9,0,5-2.3,5-5.4C208.2,38,206,35.7,203.2,35.7z"/>
					<path fill="#FFFFFF" d="M203.2,31.1c2.5,0,4.9,1,6.7,2.8c1.9,1.9,2.9,4.3,2.9,6.9c0,2.7-0.9,5.1-2.7,7c-1.8,1.9-4.3,2.9-7,2.9
						c-2.8,0-5.2-1-7-3c-1.8-1.9-2.7-4.2-2.7-7c0-2.6,1-5,2.9-6.8C198.2,32.1,200.5,31.1,203.2,31.1 M203.2,46.2
						c2.9,0,5.1-2.3,5.1-5.5c0-2.8-2.3-5.2-5.1-5.2c-2.9,0-5.2,2.3-5.2,5.2C198,43.7,200.4,46.2,203.2,46.2 M203.2,31
						c-2.7,0-5.1,0.9-7,2.8c-1.9,1.9-2.9,4.3-2.9,6.9c0,2.8,0.9,5.2,2.7,7.1c1.9,2,4.3,3,7.1,3c2.7,0,5.2-1,7.1-3
						c1.8-1.9,2.8-4.3,2.8-7.1c0-2.6-1-5.1-3-7C208.2,32,205.8,31,203.2,31L203.2,31z M203.2,46.1c-2.6,0-5-2.3-5-5.3
						c0-2.8,2.2-5,5.1-5c2.7,0,4.9,2.2,4.9,5C208.2,43.9,205.9,46.1,203.2,46.1L203.2,46.1z"/>
				</g>
				<g>
					
						<linearGradient id="SVGID_8_" gradientUnits="userSpaceOnUse" x1="221.8853" y1="203.938" x2="221.8853" y2="185.9602" gradientTransform="matrix(1 0 0 -1 0 236)">
						<stop  offset="0" style="stop-color:#FFFFFF"/>
						<stop  offset="1" style="stop-color:#DCDDDE"/>
					</linearGradient>
					<polygon fill="url(#SVGID_8_)" points="225.8,50.4 218.5,39.6 218.5,50.4 214,50.4 214,31.4 218.1,31.4 225.2,42.2 225.2,31.4 
						229.8,31.4 229.8,50.4 					"/>
					<path fill="#FFFFFF" d="M229.7,31.5v18.9h-3.9l-7.1-10.6l-0.2-0.3v0.4v10.5H214V31.5h4l7,10.6l0.2,0.3V42V31.5H229.7
						 M229.9,31.3h-4.7V42l-7-10.6h-4.2v19.1h4.7V39.8l7.1,10.7h4.1V31.3L229.9,31.3z"/>
				</g>
			</g>
		</g>
	</g>
</g>
<g>
	<path d="M105.5,191.8l-2.4,1.5l0.8,0.7l0,9.1c0,0.8-0.7,1.4-1.6,1.4c0,0-0.2,0-0.4,0l0-11.4l-2-1.3l-2.6,1.7l0.1,0.2
		c0,0,0.5-0.3,0.6-0.4c0,0,0.9,0.8,0.9,1.6l0,9.5c-1,0.3-2.1,1.1-2.1,3c0,0.9,0.8,2,2.2,2.2c0.7,0.1,2.9-0.2,2.9-0.2
		c0.3,0,0.7-0.1,1.7-0.1c0.9,0,1.5,0.3,1.8,0.7c0.1,0.1,0.1,0.1,0.2,0.2l0,0c0.3-0.3,0.5-0.9,0.5-1.3c0-0.9-0.4-1.6-1.1-2
		c-0.5-0.3-1.1-0.4-1.9-0.4c0,0-0.3,0-0.6,0c-0.4,0-0.9,0.1-1.3,0.1c-0.7,0.1-1.3,0.2-1.8,0.2c-0.3,0-0.5,0.1-0.6,0.1
		c-0.4,0-0.6-0.1-0.8-0.3c-0.2-0.2-0.3-0.4-0.3-0.6c0.1-0.8,1.1-1.2,1.4-1.2c0,0,0.3,0,0.3,0c0.6,0.1,2,0.4,3.4,0.4
		c0.5,0,1-0.1,1.4-0.3c0.5-0.2,0.9-0.5,1.3-0.8c0.4-0.3,0.6-0.6,0.8-1c0.2-0.4,0.3-0.8,0.3-1.3c0-1.3,0-8,0-9.2
		C106.9,192.7,105.5,191.8,105.5,191.8"/>
	<line fill="none" stroke="#000000" stroke-width="0.91" stroke-miterlimit="3.864" x1="106.9" y1="192.9" x2="107.7" y2="192.3"/>
	<path d="M128.1,203l-0.5,0.4c0,0-0.4-0.4-0.4-0.4v-10.1l-1.7-1.2l-3.2,2.1l-0.1-0.2c-0.4-1.1-1.1-1.5-1.4-1.8l0,0l-3,2l0.1,0.2
		c0,0,0.3-0.2,0.5-0.3c0.3,0.3,0.8,1.2,0.8,1.5v7.6l-0.8,0.7l2.3,1.5l2.3-1.5l-0.8-0.7l0-8.4l0.8-0.5c0,0,1.1,1.3,1.1,1.3l0,7.8
		c0,0.9,0.8,1.6,1.3,2c0,0,2.8-1.8,2.8-1.8L128.1,203"/>
	<path stroke="#000000" stroke-width="0.91" stroke-miterlimit="3.864" d="M66.2,203.6l0.8-0.5 M126.9,193l0.8-0.5"/>
	<path d="M69.8,193.7l1.9,3.3l-1.9,1.3L69.8,193.7 M72.4,203.1c0,0-0.7,0.4-0.9,0.5c0,0-1.7-1.2-1.7-1.2v-3.7L74,196l-2.3-4.3
		l-4.9,3.2v8.3c0.9,0.7,3,1.9,3,1.9l2.8-1.8L72.4,203.1z"/>
	<line fill="none" stroke="#000000" stroke-width="0.91" stroke-miterlimit="3.864" x1="128.6" y1="203.7" x2="129.4" y2="203.1"/>
	<path d="M193,192.1c0,0-2.1,1.4-2.5,1.6c-0.1-0.1-0.4-1.2-1.5-2c-0.3,0.2-2.9,1.9-2.9,1.9l0.1,0.2c0,0,0.4-0.2,0.4-0.3l0.2,0.1
		c0.4,0.3,0.5,0.6,0.5,0.7v8.1l-0.9,0.7l2.4,1.8c0,0,2.5-1.8,2.5-1.7l-0.9-0.8v-8.1l0.5-0.3l1.2,1.5c0,0-0.1,0.2-0.2,0.3
		c-0.2,0.3-0.5,0.6-0.5,1.2c0,0.2,0.2,0.7,0.6,0.7c0,0,0.1,0,0.1,0c0.2,0,0.3-0.1,0.5-0.1l0.1,0l-0.1,0c-0.2,0-0.3-0.1-0.4-0.2
		c0,0,0,0,0,0c-0.1-0.1-0.3-0.3-0.3-0.5c0-0.3,0.2-0.6,0.5-1.1c0.6-0.7,2-1.7,2-1.7L193,192.1"/>
	<path stroke="#000000" stroke-width="0.91" stroke-miterlimit="3.864" d="M288.9,203.6l0.8-0.5 M297.2,193.7l0.8-0.5"/>
	<path d="M84.6,205.2c-0.5,0.4-1,0.8-1.4,1c-0.5,0.3-1,0.5-1.5,0.6c-0.2,0-0.3,0.1-0.4,0.1c-0.2,0-0.4,0-0.6,0.1c-0.1,0-0.2,0-0.3,0
		c-1-0.1-1.7-0.7-1.7-1.6c0-2.3,3.9-3,5.3-3l0.3,0c0.6,0,1.1,0,2.4,0.3l0.3,0.1c-0.6,0.7-1.2,1.4-1.8,2
		C84.9,204.9,84.8,205.1,84.6,205.2 M99.5,190.6L99.5,190.6c0.3-0.2,0.4-0.6,0.4-0.9c0-0.3-0.1-0.5-0.3-0.7
		c-0.2-0.2-0.5-0.3-0.8-0.3c0,0-0.2,0-0.2,0c-0.9,0-1.9,0.6-3,1.6c-0.9,0.9-1.3,1.5-1.9,2.4c-0.5,0.7-0.7,1.1-0.8,1.3
		c-0.2,0-1.2-0.2-2.2-0.4c0.3-0.5,1.2-2.1,2.3-3.5c0.8-1.1,1.7-2,2.1-2.6c0.1-0.1,0.1-0.1,0.2-0.2c0.1,0,0.2-0.1,0.2-0.1
		c0,0-0.1-0.2-0.1-0.2c-0.1,0-0.1,0-0.2,0c-0.1,0-0.2,0.1-0.3,0.1c-0.2,0-0.3-0.1-0.6-0.4c-0.8-0.6-2.2-1.8-4.8-1.8
		c-4.4,0-7,3.7-7,6.1c0,1.5,0.3,3.2,1.1,3.9c0.8,0.7,2.1,1.2,4.4,1.8l0.2,0l-0.4,0.4c-0.6,0.5-1,1-2.2,1c-0.7,0-1.1-0.2-1.3-0.5
		l-0.1,0c0.1,0.1,0.2,0.4,0.4,0.6c0.3,0.3,0.5,0.5,0.7,0.5c0,0,0.3,0.1,0.8-0.1c0.6-0.2,1.3-0.7,2-1.4l0.3-0.3l0.3-0.3l1.7,0.3
		c0.2,0,0.4,0.1,0.5,0.1l-0.7,1c-0.9,1.3-1.2,1.7-1.2,1.7s-0.6-0.1-0.7-0.1c-0.5-0.1-1.2-0.1-2.2-0.1c-2,0-4.8,0.7-6.4,2.4
		c-0.3,0.3-0.6,0.7-0.8,1.1c-0.4,0.7-0.6,1.4-0.6,2.2c0,1,0.7,2.2,2.5,2.2c2.5,0,4.7-2.3,5.8-3.6l0.2-0.2c0.3-0.4,0.5-0.6,0.6-0.8
		c1.3,0.4,3.5,1.2,5.4,2.5c0.4-0.4,1.5-1.7,2.6-3.3c0.6-0.8,1.9-2.8,2-4.3c0-1.4-1.3-3.2-3.9-3.7c0.1-0.2,0.2-0.4,0.6-1
		c1-1.6,2-3.3,4-3.3C98.3,189.8,99.1,189.9,99.5,190.6C99.5,190.6,99.5,190.6,99.5,190.6z M90.2,193.5c-0.3,0-1.4-0.2-1.6-0.3
		c-0.9-0.2-5.1-1.4-5.1-3.3c0-2.1,2.7-2.1,4.1-2.1c0.3,0,3.4,0.3,4.8,2.2C92.3,190.1,90.6,192.9,90.2,193.5z M94.5,202.4
		c-1.6-1.1-3.4-1.9-5.1-2.4l0,0l1.9-2.7c2.4,0.5,4,1.8,4,3.1C95.3,201,95,201.8,94.5,202.4L94.5,202.4z"/>
	<path d="M44,189.5c-3,2.9-3.9,5.5-3.9,5.5l-0.1-0.1c-0.9-0.4-1.3-1.5-1.3-2.4c-0.1-2.2,1.5-3.2,3.6-3.2
		C43,189.3,43.8,189.4,44,189.5 M45.9,200.4c0,0.5-0.2,1-0.6,1.6l-0.1-0.1c-2-1.3-2.9-3.7-3.1-6.4c-0.1-1.9,0.9-4.4,2.4-6
		c0.2,0.1,1,0.3,1.4,0.4l0,4.8v3.8l0,1.6L45.9,200.4L45.9,200.4z M45.8,202.3c0.1-0.1,0.2-0.2,0.2-0.2c1.9-1.3,2.9-2.4,2.9-3.6v-7.7
		c0,0,1,0.3,2.3,0.3l0,11.5C49.1,203.4,46.7,202.9,45.8,202.3z M55.3,199.5L55.3,199.5c-1.8,2.2-3.4,2.8-3.7,2.9l0-11.3h0
		c2.1-0.1,3.5-1.3,3.5-3.1c0-0.2,0-0.5-0.2-0.8c-0.6,0.7-1.6,0.9-2.2,0.9c-1.5,0-3.1-0.4-4.7-0.9c-1.8-0.5-3.6-1-5.4-1
		c-2.6,0-5.6,1.2-5.6,4.6c0,1.2,0.8,3.5,2.9,4.5l0.1,0c0,0-0.5,1.1-0.5,2c0,3.2,2.1,8.2,7.9,8.2c1.4,0,2.7-0.3,3.8-0.9
		c0.9-0.5,1.7-1.2,2.4-2C54.8,201.1,55.3,199.6,55.3,199.5L55.3,199.5z"/>
	<line fill="none" x1="192.3" y1="195.7" x2="192.3" y2="195.7"/>
	<path d="M208.2,191.6c0,0-2.8,1.9-2.8,1.9l0.1,0.2c0,0,0.4-0.3,0.5-0.3l0.2,0.1c0.4,0.3,0.5,0.6,0.5,0.7v9.1l1.5,1.6l2.9-1.6
		l-0.2-0.3c0,0-0.4,0.2-0.4,0.2l-0.7-0.7c0,0,0-9.4,0-9.7C209.7,192.9,208.2,191.7,208.2,191.6"/>
	<polyline points="206.5,188.4 206.5,188.4 206.5,188.4 208.4,187 210,188.5 208.2,189.9 208.2,189.9 206.5,188.4 	"/>
	<path d="M144.5,191.7l-2.4,1.5l0.8,0.7l0,9.1c0,0.8-0.7,1.4-1.6,1.4c0,0-0.2,0-0.4,0l0-11.4l-2-1.3l-2.6,1.7l0.1,0.2
		c0,0,0.5-0.3,0.6-0.4c0,0,0.9,0.8,0.9,1.6l0,9.6c-1,0.3-2.1,1.1-2.1,3c0,0.9,0.8,2,2.2,2.2c0.7,0.1,2.9-0.2,2.9-0.2
		c0.3,0,0.7-0.1,1.7-0.1c0.9,0,1.5,0.3,1.8,0.7c0.1,0.1,0.1,0.1,0.2,0.2l0,0c0.3-0.3,0.5-0.9,0.5-1.3c0-0.9-0.4-1.6-1.1-2
		c-0.5-0.3-1.1-0.4-1.9-0.4c0,0-0.3,0-0.6,0c-0.4,0-0.9,0.1-1.3,0.1c-0.7,0.1-1.3,0.2-1.8,0.2c-0.3,0-0.5,0.1-0.6,0.1
		c-0.4,0-0.6-0.1-0.8-0.3c-0.2-0.2-0.3-0.5-0.3-0.6c0.1-0.8,1.1-1.2,1.4-1.2c0,0,0.4,0,0.4,0c0.6,0.1,1.9,0.4,3.4,0.4
		c0.5,0,1-0.1,1.4-0.3c0.5-0.2,0.9-0.5,1.3-0.8c0.4-0.3,0.6-0.6,0.8-1c0.2-0.4,0.3-0.8,0.3-1.3c0-1.3,0-8,0-9.2
		C145.9,192.6,144.5,191.7,144.5,191.7"/>
	<path d="M241.8,197.4c0.2,0,0.5,0,0.6,0.1c0.2,0.1,0.3,0.2,0.3,0.3c0,0.1,0,2.9,0,2.9c0,0.5-0.1,0.8-0.2,1c1.1-0.5,2.3-1.6,2.7-2.3
		c0.4-0.9,0.4-2.6,0.4-4.5c0-2.1-0.1-4.5,0.6-6.3c-0.8,0.5-1.3,0.9-1.9,1.6c-0.6,0.6-1.1,1.2-1.2,1.6c-0.4,1.1-0.3,2.7-0.3,3
		c-3.3,0.4-3.9,1.9-3.9,3.1c0,0.1,0,0.3,0.1,0.4l0,0.2C239.7,197.7,240.6,197.5,241.8,197.4"/>
	<path d="M239,188.3c0.1,0,0.7,0.1,2,0.4c0.7,0.2,1.6,0.4,1.7,0.4h0.7c0.7,0,2.2-0.9,4-2.3l0.3-0.2c-0.4,0.2-0.9,0.4-1.4,0.4
		c-0.8,0-1.6-0.3-2.6-0.6c-1-0.3-2.1-0.7-3-0.7c-2,0-3.4,1.2-3.4,3c0,0.4,0.2,0.9,0.5,1.3c-0.1-0.2-0.1-0.3-0.1-0.5
		C237.6,188.8,238.2,188.3,239,188.3"/>
	<path d="M254.2,184.8c0.4,0.2,1.1,0.6,1.4,1.3c-1,0.7-2.3,1.6-2.7,1.9c-0.7-0.9-1.7-2-2.5-2.1c0,0-0.5,0-0.7,0.1
		c-0.2,0.1-0.2,0.3-0.2,0.5l0,6.6l2.9-1.8l2.3,2.3v7.4c0,2.1-1.5,4.4-4.5,6.3c1,0.3,2.6,0.5,4.5,0.1c-1.1,1.6-2.3,2.4-3.7,2.4
		c-0.2,0-0.5,0-0.8-0.2c-1.6-0.6-2.7-0.2-2.7-0.2c1.4-1.1,2.4-2.2,3-3.3c0.7-1.1,1-2.5,1.1-3.6l0-7.3l-2-1.5l0,0.7c0,0.1,0,0,0,0.1
		c0,1.9,0,3.6-0.4,4.4c-0.4,0.7-1.6,1.8-2.7,2.3c0.1-0.2,0.2-0.4,0.2-1l0-9.4c0-0.2,0-1,0.1-1.1c0.2-1.2,0.4-2.5,2.4-3.9
		c1.5-1,2.7-1.5,3.6-1.5C253.1,184.4,253.7,184.6,254.2,184.8"/>
	<path d="M65.7,203.6L65.7,203.6c-0.2,0.2-1.6,1.1-2,1.5c-0.5,0.4-1,0.8-1.3,1.3c-0.3,0.5-0.4,1-0.5,1.5c0,0.2,0.1,0.4,0.2,0.5
		c0.3,0.3,0.8,0.4,1.1,0.4c0.1,0,0.2,0,0.4,0c0.2,0,0.3,0,0.4-0.1l0,0c0,0.2-0.2,0.4-0.5,0.5c-0.2,0.1-0.5,0.2-0.8,0.2
		c-1,0-1.4-0.9-1.4-1.4c0-0.9,1.1-2.4,1.8-3c0,0-1.3-1-1.3-1.9v-8.1l-1.2-1.3l-0.8,0.5v8.5c0,0.1,0.8,0.7,0.8,0.7l-2.3,1.5l-2.3-1.5
		l0.8-0.7l0-13.2l0-0.7c0-0.7-0.1-1.7-0.3-1.9c-0.1-0.2-0.3-0.3-0.6-0.4c0.2-0.6,0.6-0.9,1.2-0.9c0.1,0,0.6,0.1,0.9,0.2
		c0.2-0.5,0.7-1.2,1.6-1.2c0.2,0,0.5,0.1,0.7,0.3c-0.7,0.7-0.6,2.4-0.6,3.4v0.1v5.4l3.2-2.1l1.8,1.2v9.1
		C64.9,202.8,65.3,203.2,65.7,203.6"/>
	<path d="M288.2,203l0.1,0.2l-2.9,1.8l-2.3-1.5l0.7-0.7v-14l0-0.2c0-0.7-0.1-1.7-0.3-1.9c-0.1-0.2-0.3-0.3-0.6-0.4
		c0.2-0.6,0.6-0.9,1.2-0.9c0.1,0,0.6,0.1,0.9,0.2c0.4-0.4,0.8-1,1.7-1c0.2,0,0.5,0.1,0.7,0.3c-0.4,0.4-0.6,1.2-0.6,1.9
		c0,3.9,0,16.2,0,16.2l0.6,0.6L288.2,203"/>
	<path stroke="#000000" stroke-width="0.91" stroke-miterlimit="3.864" d="M280.9,193.2l0.8-0.5 M230.6,193.6l0.8-0.5 M206,203.8
		l0.8-0.5 M209.5,193l0.8-0.5 M176.5,203.7l0.8-0.5 M184.8,193.5l0.8-0.5 M145.9,192.8l0.8-0.5 M108.3,203.5l0.8-0.5 M116.5,193.7
		l0.8-0.5 M64.7,193l0.8-0.5"/>
	<path d="M292.8,193.2l1.6,1.5l0,8.6l-1.8-1.3v-8.6L292.8,193.2 M289.5,186.3c0,0.4,0,3.2,0,3.9c0.6,0.6,2,1.8,2.6,2.4
		c-0.6,0.5-1.8,1.2-2.7,1.4c0,0,0.1,0.3,0.1,0.6v8.6l2.6,1.9c2.5-1.6,4.3-2,5.1-2.2l0-9.3L289.5,186.3z"/>
	<path d="M180.4,193.5l1.6,1.7v8.1l-1.8-1.3v-8.5L180.4,193.5 M183,191.6c-1.1,0.7-4.2,2.1-5.9,2.4c0,0,0.1,0.3,0.1,0.6v8.6l2.6,1.9
		c2.5-1.6,4.3-2,5.1-2.2l0-9.6L183,191.6z"/>
	<path d="M112.1,193.1l1.6,1.5l0,8.6l-1.8-1.3v-8.6L112.1,193.1 M108.9,186.3c0,0.4,0,3.2,0,3.9c0.6,0.6,2,1.8,2.6,2.4
		c-0.6,0.5-1.8,1.2-2.7,1.4c0,0,0.1,0.3,0.1,0.6v8.6l2.6,1.9c2.5-1.6,4.3-2,5.1-2.2l0-9.3L108.9,186.3z"/>
	<line fill="none" stroke="#000000" stroke-width="0.718" stroke-miterlimit="3.864" x1="281.3" y1="203.4" x2="282.1" y2="202.9"/>
	<line fill="none" stroke="#000000" stroke-width="0.91" stroke-miterlimit="3.864" x1="191.2" y1="203.3" x2="191.8" y2="202.8"/>
	<path d="M277.1,194l0.7,0.7l0,4.3c-1.1,0-1.9-0.2-2.4-0.6C273.6,196.9,275.2,194.8,277.1,194 M277.8,201.9l-2,1.2
		c-0.7-0.3-1.1-0.8-1.3-1.3c-0.3-0.5-0.4-1.2-0.4-1.7c0,0,0-0.6,0.3-1c0.1-0.2,0.3-0.3,0.4-0.3c0.1-0.1,0.3-0.1,0.4,0
		c0.7,0.6,1.6,0.6,2.6,0.7L277.8,201.9z M281.3,203.1c-0.2-0.2-0.3-0.5-0.3-0.7v-9.3c-0.2-0.1-1.5-1.4-1.5-1.4l-2.4,1.9l-1.8-1.7
		l-2.3,1.8l1.6,1.8c-0.2,0.4-0.9,1.7-0.1,2.7c0.2,0.2,0.2,0.3,0.2,0.3l-0.2,0.1c-1.5,0.5-2.5,2.1-2.6,3.2c0,1,0.5,2.6,1.8,3.3
		l4.1-2.5l0,0.3c0,0.7,0.5,1.4,1.2,2.3l2.5-1.7L281.3,203.1z"/>
	<path d="M205,203l-0.5,0.4c0,0-0.4-0.4-0.4-0.4v-10.1l-1.7-1.2l-3.2,2.1l-0.1-0.2c-0.4-1.1-1.1-1.5-1.4-1.8l0,0l-3,2l0.1,0.2
		c0,0,0.3-0.2,0.5-0.3c0.3,0.3,0.8,1.2,0.8,1.5v7.6l-0.8,0.7l2.3,1.5l2.3-1.5l-0.8-0.7l0-8.4l0.8-0.5c0,0,1.1,1.3,1.1,1.3l0,7.8
		c0,0.9,0.8,1.6,1.3,2c0,0,2.8-1.8,2.8-1.8L205,203"/>
	<line fill="none" stroke="#000000" stroke-width="0.91" stroke-miterlimit="3.864" x1="203.8" y1="193" x2="204.6" y2="192.5"/>
	<path d="M221.6,203l-0.5,0.4c0,0-0.4-0.4-0.4-0.4v-10.1l-1.7-1.2l-3.2,2.1l-0.1-0.2c-0.4-1.1-1.1-1.5-1.4-1.8l0,0l-3,2l0.1,0.2
		c0,0,0.3-0.2,0.5-0.3c0.3,0.3,0.8,1.2,0.8,1.5v7.6l-0.8,0.7l2.3,1.5l2.3-1.5l-0.8-0.7l0-8.4l0.8-0.5c0,0,1.1,1.3,1.1,1.3l0,7.8
		c0,0.9,0.8,1.6,1.3,2c0,0,2.8-1.8,2.8-1.8L221.6,203"/>
	<line fill="none" stroke="#000000" stroke-width="0.91" stroke-miterlimit="3.864" x1="220.4" y1="193" x2="221.2" y2="192.5"/>
	<path d="M132.4,193.7l1.9,3.3l-1.9,1.3L132.4,193.7 M134.9,203.1l-0.9,0.5c0,0-1.7-1.2-1.7-1.2v-3.7l4.1-2.7l-2.3-4.3l-4.9,3.2v8.3
		c0.9,0.7,3,1.9,3,1.9l2.8-1.8L134.9,203.1z"/>
	<line fill="none" stroke="#000000" stroke-width="0.91" stroke-miterlimit="3.864" x1="255.7" y1="203.7" x2="256.5" y2="203.1"/>
	<path d="M259.5,193.7l1.9,3.3l-1.9,1.3L259.5,193.7 M262,203.2l-0.9,0.5c0,0-1.7-1.2-1.7-1.2v-3.7l4.1-2.7l-2.3-4.3l-4.9,3.2v8.3
		c0.9,0.7,3,1.9,3,1.9l2.8-1.8L262,203.2z"/>
	<path d="M270.7,192.1c0,0-2.1,1.4-2.5,1.6c-0.1-0.1-0.4-1.2-1.5-2c-0.3,0.2-2.9,1.9-2.9,1.9l0.1,0.2c0,0,0.4-0.2,0.4-0.3l0.2,0.1
		c0.4,0.3,0.5,0.6,0.5,0.7v8.1l-0.9,0.7l2.4,1.8c0,0,2.5-1.8,2.5-1.7l-0.9-0.8v-8.1l0.5-0.3l1.2,1.5c0,0-0.1,0.2-0.2,0.3
		c-0.2,0.3-0.5,0.6-0.5,1.2c0,0.2,0.2,0.7,0.6,0.7c0,0,0.1,0,0.1,0c0.2,0,0.3-0.1,0.5-0.1l0.1,0l-0.1,0c-0.2,0-0.3-0.1-0.4-0.2
		c0,0,0,0,0,0c-0.1-0.1-0.3-0.3-0.3-0.5c0-0.3,0.2-0.6,0.5-1.1c0.6-0.7,2-1.7,2-1.7L270.7,192.1"/>
	<line fill="none" stroke="#000000" stroke-width="0.91" stroke-miterlimit="3.864" x1="268.9" y1="203.3" x2="269.5" y2="202.8"/>
	<path d="M228.6,208l-0.4-0.2c-1-0.5-1.9-1-2.9-1c-0.1,0-0.1,0-0.3,0c-0.3,0-0.9,0.1-1.3,0.2l-0.2-0.4c0,0,3.7-3.1,4-3.4
		c0.5,0.4,1.1,1.1,1.4,1.6c0.3,0.5,0.4,0.9,0.4,1.5C229.3,206.9,229.2,207.3,228.6,208 M230.8,201.7v-8.2c0,0-1.5-1.3-2.1-1.9
		c-0.5,0.4-3.6,1.8-6.5,2.6c0.1,0.1,0.3,0.3,0.3,0.3l0,5.1c0,0.8,0,1.9,0.3,2.8c0.3,1,0.9,1.8,1.9,2.3l0.2,0.1l-4.8,4
		c0,0,0.1,0.5,0.1,0.5c0.1,0,0.2-0.1,0.4-0.1c0.4-0.2,0.9-0.4,1.8-0.4c1.3,0,2.7,0.8,3.3,1.2c0.1,0.1,0.2,0.1,0.3,0.2
		c0.4-0.1,1.9-1.2,3.3-2.5c0.8-0.7,1.4-1.3,1.9-1.9c0.6-0.7,0.8-1.2,0.8-1.5c0-0.4-0.3-0.8-0.6-1.2
		C231.1,202.7,230.8,202.3,230.8,201.7z M225.7,193.6l2.1,1.9l0,6.9l-0.6,0.5l-0.1,0c-0.8-0.3-1.7-1.6-1.7-2.3l0-6.9L225.7,193.6z"
		/>
	<path d="M156.3,190.6L156.3,190.6c-0.4-0.4-0.6-0.8-0.6-1.1c0-0.8,0.6-1.6,1.9-1.6c0.2,0,0.9,0.1,1.7,0.3c0.3,0.1,0.7,0.2,0.8,0.2
		c1,0,2.6-1,3.5-2.1l0-0.1l0,0c-0.8,0-1.5-0.3-2.1-0.5c-0.7-0.3-1.3-0.5-2.2-0.5c-1.9,0-4.1,1.5-4.1,3.4
		C155.1,189,155.5,190.2,156.3,190.6"/>
	<path d="M160.9,202.8c-0.8,0-1.1,0-1.8-0.2c-0.5-0.1-0.9-0.2-1.3-0.2c-0.2,0-0.4,0-0.6,0c-2.3,0-3,2-3,3.2c0,2.1,1,4.4,3.8,4.4
		c0.8,0,2.6-0.5,2.6-2.1c0-0.1-0.2-1-0.7-1h-0.4c0.1,0.3,0.3,0.8,0.3,0.9c0,1.1-1.5,1.7-2.2,1.7c-1.5,0-2.9-0.9-2.9-2.7
		c0-1,0.5-2,1.7-2c1,0,2.3,0.6,3.3,0.6c2.3,0,2.8-1.5,2.8-4.6C162.6,201.1,161.8,202.8,160.9,202.8"/>
	<path d="M171.4,194.2h-3v-5.6l1.1-0.8l1.9,1.8L171.4,194.2 M165.4,194.2h-2.7v-5.5l1.1-0.9c0,0,1.5,1.3,1.6,1.3L165.4,194.2
		L165.4,194.2z M176.1,202.8c0,0-0.3,0.2-0.5,0.2c-0.1,0-0.2,0-0.3-0.1c-0.4-0.3-0.9-0.8-0.9-1.7v-12c0-0.7,0.3-1.2,0.5-1.4l0,0
		c-0.3-0.2-0.7-0.5-1.1-0.9c-0.7-0.6-1.7-1.3-2.2-1.7c0,0-2.8,2.2-3,2.4l-1.3-1c-0.5-0.4-1.3-1.1-1.6-1.2c-0.4,0.2-6.2,5.1-6.2,5.1
		v4.1l-0.2,0c-3.2,0.4-3.5,2.9-3.5,3.6c0,0.1,0.1,0.5,0.2,0.8l0,0.1l0-0.1c0.2-0.4,0.5-0.8,0.9-1c0.4-0.3,0.8-0.5,1.3-0.5
		c1-0.1,1.1-0.1,1.2,0l0.1,0.1l0,4.3c0,0.4-0.1,0.6-0.2,0.8c1.1-0.6,2.4-1.7,2.8-2.4c0.5-0.9,0.4-0.9,0.4-2.8V197h2.7v5.1l-0.9,1
		l3.2,2.1l3-2.2l-0.4-0.2c0,0-0.1,0.1-0.2,0.1c-0.1,0.1-0.2,0.1-0.3,0.1c-0.3,0-1.2-0.8-1.3-1l0-5l2.9,0v4.7c0,0.3,0,0.9,0.4,1.7
		c0.1,0.2,1,1.3,1.7,1.7c0.3-0.2,3-2.1,3-2.1L176.1,202.8z"/>
	<path d="M245.1,201.6c-3.3,0.1-6,3.1-6,6.1c0,1.2,0.4,3,2.2,3c0.7,0,1.3-0.3,1.3-1.3c0-0.2,0-0.5-0.1-0.7c-0.1,0.3-0.7,1.1-1.3,1.1
		c-1.3,0-1.6-1.1-1.6-1.9c0-1.8,1.4-3.9,3.6-3.9c1.2,0,2.5,0.5,3.7,1.9c0,0,2.6-1.9,2.6-1.9C248,202,247.1,201.5,245.1,201.6"/>
</g>
</svg>
