<svg xmlns="http://www.w3.org/2000/svg" width="370" height="365"><desc/><g><g><desc/><path d="M49.795 102.41h61.44-61.44z" fill-rule="evenodd" fill="#fff"/></g><g><desc/><path d="M111.236 103.976h-61.44v-3.135h61.44v3.136z" fill-rule="evenodd" fill="#96d4ff"/></g><g><desc/><path d="M2.738 153.73h108.498H2.738z" fill-rule="evenodd" fill="#fff"/></g><g><desc/><path d="M111.236 155.295H2.738v-3.135h108.498v3.135z" fill-rule="evenodd" fill="#96d4ff"/></g><g><desc/><path d="M49.795 207.454h61.44-61.44z" fill-rule="evenodd" fill="#fff"/></g><g><desc/><path d="M111.236 209.02h-61.44v-3.133h61.44v3.134z" fill-rule="evenodd" fill="#96d4ff"/></g><g><desc/><path d="M367.638 86.723L286.98 16.26H112.02v300.217H367.64V86.723z" fill-rule="evenodd" fill="#fff"/></g><g><desc/><path d="M113.588 314.91H366.07V87.435L286.393 17.83H113.588v297.08m255.618 3.134H110.453V14.694H287.57l.44.387 81.196 70.93v232.034z" fill-rule="evenodd" fill="#1f7edd"/></g><g><desc/><path d="M149.636 308.635c0 20.775-16.84 37.615-37.615 37.615-20.774 0-37.614-16.84-37.614-37.615 0-20.775 16.84-37.615 37.615-37.615 20.775 0 37.616 16.84 37.616 37.615z" fill-rule="evenodd" fill="#fff"/></g><g><desc/><path d="M112.02 272.587c-19.876 0-36.048 16.17-36.048 36.048 0 19.876 16.172 36.047 36.05 36.047 19.875 0 36.047-16.17 36.047-36.047 0-19.877-16.173-36.048-36.05-36.048m0 75.23c-21.605 0-39.182-17.577-39.182-39.182 0-21.606 17.577-39.183 39.183-39.183 21.606 0 39.183 17.577 39.183 39.183 0 21.605-17.577 39.182-39.182 39.182z" fill-rule="evenodd" fill="#1f7edd"/></g><g><desc/><path d="M111.236 288.736v21.467l18.808 12.026" fill-rule="evenodd" fill="#fff"/></g><g><desc/><path d="M129.2 323.55l-19.53-12.488v-22.326h3.134v20.61l18.085 11.563-1.69 2.64z" fill-rule="evenodd" fill="#1f7edd"/></g><g><desc/><path d="M152.52 51.665v21.132l18.114-10.567-18.114-10.565m-1.28 23.363V49.433l21.936 12.797-21.937 12.798z" fill-rule="evenodd" fill="#97d5ff"/></g><g><desc/><path d="M144.268 62.897h13.938l6.967 12.07h-13.936l-6.97-12.07m6.97-13.404h13.936l-6.967 12.07h-13.938l6.97-12.07m8.124 12.736l6.968-12.07 6.97 12.07-6.97 12.07-6.968-12.07m7.355-14.073h-16.25L142.34 62.23l8.126 14.073h16.25l8.125-14.073-8.123-14.073z" fill-rule="evenodd" fill="#97d5ff"/></g><g><desc/><path d="M367.638 88.29h-82.225V16.26l3.135.002v68.894h79.09v3.135z" fill-rule="evenodd" fill="#1f7edd"/></g><g><desc/><path d="M143.82 129.055h1.82v25.97h-1.82v-25.97z" fill-rule="evenodd" fill="#1f7edd"/></g><g><desc/><path d="M152.652 136.178h1.67v3.82c.853-2.485 3.153-4.265 6.752-4.265 4.193 0 6.902 2.783 6.902 7.458v11.835h-1.78v-11.612c0-3.822-1.82-6.16-5.53-6.16-3.413 0-6.232 2.375-6.232 6.79v10.982h-1.782v-18.847z" fill-rule="evenodd" fill="#1f7edd"/></g><g><desc/><path d="M173.32 149.646v-.11h1.744v.073c0 2.78 2.672 4.414 5.936 4.414 3.19 0 5.714-1.52 5.714-4.007 0-1.558-.853-2.634-2.708-3.08l-6.197-1.52c-2.523-.63-3.97-2.115-3.97-4.49 0-3.19 2.746-5.194 6.79-5.194 4.044 0 6.863 2.374 6.863 5.825v.11h-1.744v-.11c0-2.597-1.893-4.378-5.12-4.378-3.117 0-5.047 1.373-5.047 3.748 0 1.595.89 2.485 2.56 2.893l6.122 1.522c2.82.705 4.193 2.226 4.193 4.638 0 3.34-3.45 5.49-7.495 5.49-4.34 0-7.642-2.263-7.642-5.824z" fill-rule="evenodd" fill="#1f7edd"/></g><g><desc/><path d="M200.074 155.026c-3.45 0-4.972-1.78-4.972-4.898v-12.503h-3.45v-1.446h3.45v-5.456h1.782v5.455h5.193v1.445h-5.193v12.503c0 2.412.89 3.45 3.448 3.45h1.67v1.448h-1.928z" fill-rule="evenodd" fill="#1f7edd"/></g><g><desc/><path d="M219.59 149.46c0-2.82-3.45-4.45-6.417-4.45-3.34 0-5.862 1.483-5.862 4.45 0 2.858 2.302 4.638 5.677 4.638 3.154 0 6.604-1.596 6.604-4.638m-13.985-.037c0-3.673 3.153-5.825 7.568-5.825 2.93 0 5.38 1.447 6.418 2.82v-3.747c0-3.115-2.04-5.49-5.378-5.49-2.783 0-4.638 1.336-5.528 3.487h-1.67c.89-3.116 3.673-4.934 7.198-4.934 4.267 0 7.16 2.968 7.16 6.863v12.43h-1.706v-2.634c-1.002 1.595-3.636 3.08-6.79 3.08-4.377 0-7.27-2.525-7.27-6.05z" fill-rule="evenodd" fill="#1f7edd"/></g><g><desc/><path d="M227.498 136.178h1.67v3.82c.853-2.485 3.153-4.265 6.75-4.265 4.194 0 6.903 2.783 6.903 7.458v11.835h-1.78v-11.612c0-3.822-1.82-6.16-5.528-6.16-3.414 0-6.233 2.375-6.233 6.79v10.982h-1.782v-18.847z" fill-rule="evenodd" fill="#1f7edd"/></g><g><desc/><path d="M255.586 155.026c-3.45 0-4.97-1.78-4.97-4.898v-12.503h-3.452v-1.446h3.45v-5.456h1.782v5.455h5.193v1.445h-5.194v12.503c0 2.412.89 3.45 3.45 3.45h1.67v1.448h-1.93z" fill-rule="evenodd" fill="#1f7edd"/></g><g><desc/><path d="M157.772 188.572c0-3.895-2.115-6.863-6.27-6.863-3.674 0-6.456 3.004-6.456 6.937v2.967c0 3.933 2.745 6.94 6.42 6.94 4.116 0 6.306-2.97 6.306-6.865v-3.118m-14.508 17.438v-25.303h1.67v3.672c.965-2.3 3.378-4.118 6.865-4.118 4.822 0 7.752 3.524 7.752 8.2v3.338c0 4.676-2.93 8.2-7.753 8.2-3.38 0-5.753-1.745-6.754-3.933v9.943h-1.782z" fill-rule="evenodd" fill="#1f7edd"/></g><g><desc/><path d="M165.047 180.707h1.67v4.675c.592-2.783 3.078-4.786 6.714-4.786h.186v1.632h-.185c-3.857 0-6.602 2.71-6.602 7.865v9.46h-1.78v-18.846z" fill-rule="evenodd" fill="#1f7edd"/></g><g><desc/><path d="M177.923 180.708h1.78v18.846h-1.78v-18.846m.89-6.94c.89 0 1.41.632 1.41 1.374 0 .667-.52 1.372-1.41 1.372-.89 0-1.41-.705-1.41-1.372 0-.742.52-1.373 1.41-1.373z" fill-rule="evenodd" fill="#1f7edd"/></g><g><desc/><path d="M185.38 191.8v-3.34c0-4.71 3.154-8.198 8.127-8.198 4.6 0 7.456 3.005 7.94 6.864h-1.633c-.52-3.005-2.486-5.417-6.307-5.417-4.045 0-6.345 2.93-6.345 6.788v3.265c0 3.858 2.3 6.79 6.345 6.79 3.82 0 5.787-2.41 6.307-5.418h1.632c-.483 3.86-3.34 6.865-7.94 6.865-4.972 0-8.125-3.488-8.125-8.2z" fill-rule="evenodd" fill="#1f7edd"/></g><g><desc/><path d="M207.793 189.463h12.354v-1.15c0-3.71-2.04-6.642-6.084-6.642-4.23 0-6.27 2.784-6.27 6.902v.89m-1.744 2.45v-3.265c0-5.046 2.93-8.385 8.013-8.385 5.046 0 7.79 3.71 7.79 8.125v2.523h-14.06v1.113c0 3.673 2.226 6.566 6.382 6.566 3.08 0 5.08-1.744 5.86-4.267h1.56c-.742 3.34-3.6 5.677-7.42 5.677-5.01 0-8.126-3.265-8.126-8.088z" fill-rule="evenodd" fill="#1f7edd"/></g><g><desc/><path d="M236.514 191.69c0 3.894 2.19 6.863 6.308 6.863 3.672 0 6.418-3.006 6.418-6.938v-2.968c0-3.933-2.783-6.938-6.456-6.938-4.155 0-6.27 2.967-6.27 6.863v3.116m12.726 14.32v-9.942c-1.002 2.188-3.376 3.932-6.753 3.932-4.823 0-7.754-3.525-7.754-8.2v-3.338c0-4.676 2.93-8.2 7.754-8.2 3.488 0 5.9 1.818 6.865 4.118v-3.673h1.67v25.303h-1.782z" fill-rule="evenodd" fill="#1f7edd"/></g><g><desc/><path d="M272.468 199.554h-1.67v-3.82c-.74 2.41-3.078 4.266-6.677 4.266-4.192 0-6.825-2.783-6.825-7.458v-11.834h1.78v11.61c0 3.824 1.744 6.16 5.453 6.16 3.415 0 6.16-2.374 6.16-6.79v-10.98h1.78v18.846z" fill-rule="evenodd" fill="#1f7edd"/></g><g><desc/><path d="M286.087 181.71c-4.117 0-6.418 2.93-6.418 6.826v3.19c0 3.896 2.3 6.828 6.417 6.828 4.12 0 6.42-2.932 6.42-6.828v-3.19c0-3.896-2.3-6.827-6.42-6.827m-8.125 10.09v-3.34c0-4.6 3.005-8.198 8.125-8.198s8.126 3.6 8.126 8.2v3.338c0 4.6-3.006 8.2-8.126 8.2-5.12 0-8.125-3.6-8.125-8.2z" fill-rule="evenodd" fill="#1f7edd"/></g><g><desc/><path d="M305.978 199.554c-3.45 0-4.972-1.78-4.972-4.897v-12.503h-3.45v-1.446h3.45v-5.455h1.78v5.455h5.194v1.446h-5.193v12.503c0 2.41.89 3.45 3.45 3.45h1.67v1.447h-1.93z" fill-rule="evenodd" fill="#1f7edd"/></g><g><desc/><path d="M313.51 189.463h12.354v-1.15c0-3.71-2.04-6.642-6.084-6.642-4.23 0-6.27 2.784-6.27 6.902v.89m-1.743 2.45v-3.265c0-5.046 2.93-8.385 8.013-8.385 5.046 0 7.792 3.71 7.792 8.125v2.523H313.51v1.113c0 3.673 2.226 6.566 6.382 6.566 3.08 0 5.082-1.744 5.86-4.267h1.56c-.742 3.34-3.6 5.677-7.42 5.677-5.01 0-8.125-3.265-8.125-8.088z" fill-rule="evenodd" fill="#1f7edd"/></g><g><desc/><path d="M332.324 194.175v-.112h1.744v.075c0 2.783 2.672 4.416 5.935 4.416 3.192 0 5.715-1.522 5.715-4.008 0-1.558-.853-2.634-2.708-3.08l-6.197-1.522c-2.522-.63-3.97-2.113-3.97-4.487 0-3.192 2.747-5.195 6.79-5.195 4.044 0 6.863 2.374 6.863 5.824v.112h-1.743v-.112c0-2.596-1.892-4.377-5.12-4.377-3.115 0-5.046 1.37-5.046 3.747 0 1.594.89 2.485 2.56 2.893l6.122 1.52c2.82.706 4.19 2.228 4.19 4.64 0 3.338-3.45 5.49-7.493 5.49-4.34 0-7.643-2.263-7.643-5.825z" fill-rule="evenodd" fill="#1f7edd"/></g><g><desc/><path d="M145.334 226.38c-.03-.744-.572-1.397-1.593-1.397-1.162 0-1.712.766-1.712 1.96v1.122c0 1.195.49 2.03 1.724 2.03 1.04 0 1.613-.642 1.613-1.427v-.103h-1.602v-1.163h3v.93c0 1.714-1.194 2.907-3.032 2.907-2.12 0-3.12-1.43-3.12-3.206v-1.04c0-1.92 1.143-3.185 3.09-3.185 1.847 0 2.95 1.092 2.99 2.57h-1.356z" fill-rule="evenodd" fill="#5e5e5e"/></g><g><desc/><path d="M149.14 223.952h5v1.184h-3.57v1.745h3.265v1.195h-3.266v1.838h3.58v1.183h-5.01v-7.144z" fill-rule="evenodd" fill="#5e5e5e"/></g><g><desc/><path d="M157.967 225.136h-2.02v-1.183h5.47v1.183h-2.02v5.96h-1.43v-5.96z" fill-rule="evenodd" fill="#5e5e5e"/></g><g><desc/><path d="M166.53 229.025v-.184h1.366v.154c0 .664.52 1.143 1.48 1.143.847 0 1.398-.377 1.398-1.04 0-.4-.195-.684-.673-.807l-1.867-.48c-1.082-.275-1.592-.776-1.592-1.848 0-1.347 1.02-2.153 2.623-2.153 1.582 0 2.582.877 2.582 2.133v.172h-1.316v-.142c0-.602-.388-1.062-1.267-1.062-.755 0-1.245.308-1.245.93 0 .42.215.653.613.756l1.96.52c1.052.276 1.562.9 1.562 1.868 0 1.357-1.215 2.256-2.828 2.256-1.683 0-2.795-.817-2.795-2.215z" fill-rule="evenodd" fill="#5e5e5e"/></g><g><desc/><path d="M175.67 225.136h-2.02v-1.183h5.47v1.183h-2.02v5.96h-1.43v-5.96z" fill-rule="evenodd" fill="#5e5e5e"/></g><g><desc/><path d="M182.234 228.463h2.05l-1.02-3.225-1.03 3.225m4.316 2.634h-1.42l-.478-1.5h-2.776l-.48 1.5h-1.42l2.564-7.144h1.448l2.562 7.144z" fill-rule="evenodd" fill="#5e5e5e"/></g><g><desc/><path d="M191.642 227.657c.878 0 1.327-.54 1.327-1.286 0-.764-.46-1.254-1.328-1.254h-1.622v2.54h1.622m-.122 1.155h-1.5v2.287h-1.43v-7.144h3.226c1.683 0 2.582 1.04 2.582 2.428 0 1.013-.53 1.83-1.41 2.207l1.492 2.51h-1.654l-1.306-2.286z" fill-rule="evenodd" fill="#5e5e5e"/></g><g><desc/><path d="M198.03 225.136h-2.02v-1.183h5.47v1.183h-2.02v5.96h-1.43v-5.96z" fill-rule="evenodd" fill="#5e5e5e"/></g><g><desc/><path d="M203.55 223.952h5.002v1.184h-3.573v1.745h3.266v1.195h-3.267v1.838h3.58v1.183h-5.01v-7.144z" fill-rule="evenodd" fill="#5e5e5e"/></g><g><desc/><path d="M215.286 226.75c0-1.042-.6-1.635-1.756-1.635h-1.235v4.82h1.235c1.155 0 1.756-.594 1.756-1.635v-1.55m-1.51-2.798c1.917 0 2.928 1.184 2.928 2.807v1.53c0 1.622-1.01 2.807-2.93 2.807h-2.898v-7.145h2.9z" fill-rule="evenodd" fill="#5e5e5e"/></g><g><desc/><path d="M222.387 223.952h1.43v7.144h-1.43v-7.144z" fill-rule="evenodd" fill="#5e5e5e"/></g><g><desc/><path d="M226.458 223.952h1.358l3.112 4.756v-4.756h1.398v7.144h-1.357l-3.113-4.756v4.756h-1.4v-7.144z" fill-rule="evenodd" fill="#5e5e5e"/></g><g><desc/><path d="M239.417 225.136h-2.02v-1.183h5.47v1.183h-2.02v5.96h-1.43v-5.96z" fill-rule="evenodd" fill="#5e5e5e"/></g><g><desc/><path d="M244.937 223.952h5.002v1.184h-3.574v1.745h3.267v1.195h-3.267v1.838h3.582v1.183h-5.01v-7.144z" fill-rule="evenodd" fill="#5e5e5e"/></g><g><desc/><path d="M252.264 223.952h1.358l3.112 4.756v-4.756h1.4v7.144h-1.358l-3.113-4.756v4.756h-1.4v-7.144z" fill-rule="evenodd" fill="#5e5e5e"/></g><g><desc/><path d="M270.664 231.097h-1.368v-4.388l-1.336 2.652h-1.266l-1.338-2.653v4.387h-1.367v-7.144h1.316l2.02 4.08 2.02-4.08h1.318v7.144z" fill-rule="evenodd" fill="#5e5e5e"/></g><g><desc/><path d="M273.305 223.952h1.43v7.144h-1.43v-7.144z" fill-rule="evenodd" fill="#5e5e5e"/></g><g><desc/><path d="M277.376 223.952h1.36l3.11 4.756v-4.756h1.398v7.144h-1.356l-3.113-4.756v4.756h-1.4v-7.144z" fill-rule="evenodd" fill="#5e5e5e"/></g><g><desc/><path d="M285.785 228.525v-4.573h1.418v4.634c0 .93.604 1.47 1.522 1.47s1.51-.54 1.51-1.47v-4.634h1.43v4.573c0 1.612-1.093 2.715-2.94 2.715s-2.94-1.103-2.94-2.715z" fill-rule="evenodd" fill="#5e5e5e"/></g><g><desc/><path d="M295.703 225.136h-2.02v-1.183h5.47v1.183h-2.02v5.96h-1.43v-5.96z" fill-rule="evenodd" fill="#5e5e5e"/></g><g><desc/><path d="M301.224 223.952h5.002v1.184h-3.572v1.745h3.266v1.195h-3.266v1.838h3.58v1.183h-5.01v-7.144z" fill-rule="evenodd" fill="#5e5e5e"/></g><g><desc/><path d="M308.327 229.025v-.184h1.367v.154c0 .664.52 1.143 1.48 1.143.847 0 1.398-.377 1.398-1.04 0-.4-.194-.684-.673-.807l-1.87-.48c-1.08-.275-1.59-.776-1.59-1.848 0-1.347 1.02-2.153 2.622-2.153 1.58 0 2.58.877 2.58 2.133v.172h-1.315v-.142c0-.602-.387-1.062-1.265-1.062-.756 0-1.246.308-1.246.93 0 .42.215.653.613.756l1.958.52c1.052.276 1.563.9 1.563 1.868 0 1.357-1.215 2.256-2.827 2.256-1.684 0-2.796-.817-2.796-2.215z" fill-rule="evenodd" fill="#5e5e5e"/></g><g><desc/><path d="M145.548 244.815v-1.183c0-1.134-.56-1.94-1.755-1.94-1.194 0-1.755.806-1.755 1.94v1.183c0 1.133.56 1.94 1.755 1.94 1.195 0 1.755-.807 1.755-1.94m1.43-.07c0 1.815-1.083 3.193-3.185 3.193-2.092 0-3.184-1.378-3.184-3.194v-1.042c0-1.817 1.09-3.195 3.183-3.195 2.102 0 3.185 1.378 3.185 3.195v1.042z" fill-rule="evenodd" fill="#5e5e5e"/></g><g><desc/><path d="M152.405 244.355c.878 0 1.327-.54 1.327-1.285 0-.766-.46-1.256-1.327-1.256h-1.623v2.54h1.623m-.123 1.155h-1.5v2.285h-1.43v-7.144h3.227c1.682 0 2.58 1.042 2.58 2.43 0 1.01-.53 1.827-1.408 2.205l1.49 2.51h-1.653l-1.308-2.286z" fill-rule="evenodd" fill="#5e5e5e"/></g><g><desc/><path d="M160.762 240.65h1.43v5.96h3.285v1.184h-4.715v-7.144z" fill-rule="evenodd" fill="#5e5e5e"/></g><g><desc/><path d="M167.7 240.65h5.003v1.185h-3.573v1.745h3.267v1.193h-3.267v1.838h3.582v1.184h-5.01v-7.144z" fill-rule="evenodd" fill="#5e5e5e"/></g><g><desc/><path d="M174.803 245.723v-.184h1.368v.153c0 .663.52 1.142 1.48 1.142.847 0 1.398-.377 1.398-1.04 0-.4-.193-.684-.672-.807l-1.87-.48c-1.08-.275-1.59-.776-1.59-1.848 0-1.347 1.02-2.152 2.622-2.152 1.582 0 2.582.877 2.582 2.133v.173h-1.317v-.14c0-.603-.386-1.063-1.265-1.063-.755 0-1.246.306-1.246.928 0 .42.215.653.613.756l1.96.52c1.052.276 1.562.9 1.562 1.868 0 1.358-1.215 2.256-2.827 2.256-1.684 0-2.797-.817-2.797-2.215z" fill-rule="evenodd" fill="#5e5e5e"/></g><g><desc/><path d="M182.447 245.723v-.184h1.367v.153c0 .663.52 1.142 1.48 1.142.847 0 1.398-.377 1.398-1.04 0-.4-.194-.684-.673-.807l-1.87-.48c-1.08-.275-1.59-.776-1.59-1.848 0-1.347 1.02-2.152 2.62-2.152 1.584 0 2.583.877 2.583 2.133v.173h-1.316v-.14c0-.603-.387-1.063-1.266-1.063-.753 0-1.244.306-1.244.928 0 .42.215.653.613.756l1.958.52c1.052.276 1.562.9 1.562 1.868 0 1.358-1.215 2.256-2.827 2.256-1.684 0-2.796-.817-2.796-2.215z" fill-rule="evenodd" fill="#5e5e5e"/></g></g></svg>