<svg xmlns:dc="http://purl.org/dc/elements/1.1/" xmlns:cc="http://creativecommons.org/ns#" xmlns:rdf="http://www.w3.org/1999/02/22-rdf-syntax-ns#" xmlns:svg="http://www.w3.org/2000/svg" xmlns="http://www.w3.org/2000/svg" viewBox="0 0 533.33331 400" height="300" width="400" xml:space="preserve" version="1.1" id="svg2"><metadata id="metadata8"><rdf:rdf><cc:work rdf:about=""><dc:format>image/svg+xml</dc:format><dc:type rdf:resource="http://purl.org/dc/dcmitype/StillImage"></dc:type></cc:work></rdf:rdf></metadata><defs id="defs6"><clipPath id="clipPath16" clipPathUnits="userSpaceOnUse"><path id="path18" d="M 0,300 400,300 400,0 0,0 0,300 Z"></path></clipPath></defs><g transform="matrix(1.3333333,0,0,-1.3333333,0,400)" id="g10"><g id="g12"><g clip-path="url(#clipPath16)" id="g14"><g transform="translate(389.2826,145.3352)" id="g20"><path id="path22" style="fill:#fff;fill-opacity:1;fill-rule:nonzero;stroke:#1f7edd;stroke-width:2.80500007;stroke-linecap:butt;stroke-linejoin:round;stroke-miterlimit:10;stroke-dasharray:none;stroke-opacity:1" d="m 0,0 0,22.292 c 0,7.819 -5.161,16.712 -14.176,23.943 -10.512,8.43 -16.303,9.029 -16.303,9.029 -12.481,8.904 -16.236,-1.399 -28.76,-2.551 C -70.2,51.704 -77.8,58.002 -77.8,45.258 c 0,-0.213 0.012,-1.319 0.021,-1.53 l -0.021,0.89 c 0,0 -9.946,-7.117 -9.946,-23.231 l 0,-21.922"></path></g><g transform="translate(383.9496,146.2306)" id="g24"><path id="path26" style="fill:#fff;fill-opacity:1;fill-rule:nonzero;stroke:#1f7edd;stroke-width:2.80500007;stroke-linecap:butt;stroke-linejoin:round;stroke-miterlimit:10;stroke-dasharray:none;stroke-opacity:1" d="M 0,0 C 5.891,0 10.666,-4.775 10.666,-10.666 10.666,-16.557 5.891,-21.332 0,-21.332"></path></g><g transform="translate(306.8691,124.8988)" id="g28"><path id="path30" style="fill:#fff;fill-opacity:1;fill-rule:nonzero;stroke:#1f7edd;stroke-width:2.80500007;stroke-linecap:butt;stroke-linejoin:round;stroke-miterlimit:10;stroke-dasharray:none;stroke-opacity:1" d="m 0,0 c -5.891,0 -10.666,4.775 -10.666,10.666 0,5.891 4.775,10.666 10.666,10.666"></path></g><g transform="translate(334.2962,87.1179)" id="g32"><path id="path34" style="fill:#fff;fill-opacity:1;fill-rule:nonzero;stroke:#1f7edd;stroke-width:2.80500007;stroke-linecap:butt;stroke-linejoin:round;stroke-miterlimit:10;stroke-dasharray:none;stroke-opacity:1" d="m 0,0 0,-7.749 c -12.184,-4.388 -29.886,-13.288 -29.886,-27.957 l 0,-24.294 22.366,0 37.576,0 22.366,0 0,24.294 c 0,14.919 -18.309,23.869 -30.503,28.176 l 0,7.53"></path></g><g transform="translate(383.9496,163.8498)" id="g36"><path id="path38" style="fill:#fff;fill-opacity:1;fill-rule:nonzero;stroke:none" d="m 0,0 0,-32.721 c 0,-19.362 -15.696,-44.906 -35.057,-44.906 l -6.657,0 c -19.362,0 -35.058,25.544 -35.058,44.906 l 0.02,40.977 c 0,-6.53 8.382,-13.421 21.059,-12.08 16.932,1.791 25.424,14.775 27.661,22.584 C -16.445,4.231 0,0 0,0"></path></g><g transform="translate(383.9496,163.8498)" id="g40"><path id="path42" style="fill:none;stroke:#1f7edd;stroke-width:2.80500007;stroke-linecap:butt;stroke-linejoin:round;stroke-miterlimit:10;stroke-dasharray:none;stroke-opacity:1" d="m 0,0 0,-32.721 c 0,-19.362 -15.696,-44.906 -35.057,-44.906 l -6.657,0 c -19.362,0 -35.058,25.544 -35.058,44.906 l 0.02,40.977 c 0,-6.53 8.382,-13.421 21.059,-12.08 16.932,1.791 25.424,14.775 27.661,22.584 C -16.445,4.231 0,0 0,0 Z"></path></g><g transform="translate(356.2153,79.0047)" id="g44"><path id="path46" style="fill:none;stroke:#1f7edd;stroke-width:2.80500007;stroke-linecap:butt;stroke-linejoin:round;stroke-miterlimit:10;stroke-dasharray:none;stroke-opacity:1" d="m 0,0 0,0 c 0,-5.521 -4.476,-9.997 -9.997,-9.997 l -2.06,0 c -5.521,0 -9.997,4.476 -9.997,9.997"></path></g><g transform="translate(317.7479,42.1024)" id="g48"><path id="path50" style="fill:none;stroke:#1f7edd;stroke-width:2.80500007;stroke-linecap:butt;stroke-linejoin:round;stroke-miterlimit:10;stroke-dasharray:none;stroke-opacity:1" d="M 0,0 0,-14.984"></path></g><g transform="translate(373.7676,42.1024)" id="g52"><path id="path54" style="fill:none;stroke:#1f7edd;stroke-width:2.80500007;stroke-linecap:butt;stroke-linejoin:round;stroke-miterlimit:10;stroke-dasharray:none;stroke-opacity:1" d="M 0,0 0,-14.984"></path></g><g transform="translate(364.7708,57.118)" id="g56"><path id="path58" style="fill:none;stroke:#1f7edd;stroke-width:2.80500007;stroke-linecap:round;stroke-linejoin:miter;stroke-miterlimit:10;stroke-dasharray:none;stroke-opacity:1" d="m 0,0 -8.555,3.536 0,18.351 L 0,18.982 0,0 Z"></path></g><g transform="translate(325.5663,57.118)" id="g60"><path id="path62" style="fill:none;stroke:#1f7edd;stroke-width:2.80500007;stroke-linecap:round;stroke-linejoin:miter;stroke-miterlimit:10;stroke-dasharray:none;stroke-opacity:1" d="m 0,0 8.555,3.536 0,18.351 L 0,17.66 0,0 Z"></path></g><g transform="translate(356.2153,60.6544)" id="g64"><path id="path66" style="fill:none;stroke:#1f7edd;stroke-width:2.80500007;stroke-linecap:round;stroke-linejoin:miter;stroke-miterlimit:10;stroke-dasharray:none;stroke-opacity:1" d="m 0,0 -12.365,-8.659 0,-24.877"></path></g><g transform="translate(334.1218,60.6544)" id="g68"><path id="path70" style="fill:none;stroke:#1f7edd;stroke-width:2.80500007;stroke-linecap:round;stroke-linejoin:miter;stroke-miterlimit:10;stroke-dasharray:none;stroke-opacity:1" d="M 0,0 9.728,-8.659"></path></g><g transform="translate(365.6451,135.5647)" id="g72"><path id="path74" style="fill:#1f7edd;fill-opacity:1;fill-rule:nonzero;stroke:none" d="m 0,0 c 0,-1.637 -1.327,-2.965 -2.965,-2.965 -1.637,0 -2.964,1.328 -2.964,2.965 0,1.637 1.327,2.965 2.964,2.965 C -1.327,2.965 0,1.637 0,0"></path></g><g transform="translate(333.0085,135.5647)" id="g76"><path id="path78" style="fill:#1f7edd;fill-opacity:1;fill-rule:nonzero;stroke:none" d="m 0,0 c 0,-1.637 -1.327,-2.965 -2.965,-2.965 -1.637,0 -2.964,1.328 -2.964,2.965 0,1.637 1.327,2.965 2.964,2.965 C -1.327,2.965 0,1.637 0,0"></path></g><g transform="translate(323.0392,153.02)" id="g80"><path id="path82" style="fill:#fff;fill-opacity:1;fill-rule:nonzero;stroke:#96d4ff;stroke-width:3;stroke-linecap:butt;stroke-linejoin:miter;stroke-miterlimit:10;stroke-dasharray:none;stroke-opacity:1" d="M 0,0 9.115,0"></path></g><g transform="translate(359.3018,153.02)" id="g84"><path id="path86" style="fill:#fff;fill-opacity:1;fill-rule:nonzero;stroke:#96d4ff;stroke-width:3;stroke-linecap:butt;stroke-linejoin:miter;stroke-miterlimit:10;stroke-dasharray:none;stroke-opacity:1" d="M 0,0 9.115,0"></path></g><g transform="translate(338.826,105.4192)" id="g88"><path id="path90" style="fill:#fff;fill-opacity:1;fill-rule:nonzero;stroke:#96d4ff;stroke-width:3;stroke-linecap:butt;stroke-linejoin:miter;stroke-miterlimit:10;stroke-dasharray:none;stroke-opacity:1" d="m 0,0 c 1.964,-1.194 4.271,-1.882 6.738,-1.882 2.467,0 4.773,0.688 6.738,1.882"></path></g><g transform="translate(350.037,121.9746)" id="g92"><path id="path94" style="fill:#fff;fill-opacity:1;fill-rule:nonzero;stroke:#96d4ff;stroke-width:3;stroke-linecap:butt;stroke-linejoin:miter;stroke-miterlimit:10;stroke-dasharray:none;stroke-opacity:1" d="m 0,0 0,-3.651 c 0,-2.47 -2.003,-4.473 -4.473,-4.473 -2.471,0 -4.474,2.003 -4.474,4.473 l 0,3.651"></path></g><g transform="translate(341.6852,135.5647)" id="g96"><path id="path98" style="fill:none;stroke:#1f7edd;stroke-width:2.80500007;stroke-linecap:butt;stroke-linejoin:round;stroke-miterlimit:10;stroke-dasharray:none;stroke-opacity:1" d="m 0,0 c 0,-6.563 -5.32,-11.883 -11.883,-11.883 -6.563,0 -11.884,5.32 -11.884,11.883 0,6.563 5.321,11.883 11.884,11.883 C -5.32,11.883 0,6.563 0,0 Z"></path></g><g transform="translate(374.3906,135.5647)" id="g100"><path id="path102" style="fill:none;stroke:#1f7edd;stroke-width:2.80500007;stroke-linecap:butt;stroke-linejoin:round;stroke-miterlimit:10;stroke-dasharray:none;stroke-opacity:1" d="m 0,0 c 0,-6.563 -5.32,-11.883 -11.883,-11.883 -6.563,0 -11.884,5.32 -11.884,11.883 0,6.563 5.321,11.883 11.884,11.883 C -5.32,11.883 0,6.563 0,0 Z"></path></g><g transform="translate(375.1062,135.5647)" id="g104"><path id="path106" style="fill:none;stroke:#1f7edd;stroke-width:2.80500007;stroke-linecap:butt;stroke-linejoin:round;stroke-miterlimit:10;stroke-dasharray:none;stroke-opacity:1" d="M 0,0 8.673,0"></path></g><g transform="translate(307.5392,135.5647)" id="g108"><path id="path110" style="fill:none;stroke:#1f7edd;stroke-width:2.80500007;stroke-linecap:butt;stroke-linejoin:round;stroke-miterlimit:10;stroke-dasharray:none;stroke-opacity:1" d="M 0,0 10.14,0"></path></g><g transform="translate(308.8657,235.3508)" id="g112"><path id="path114" class="transparent animated vpc-svg delay-1 fadeIn" data-vp-add-class="fadeIn" style="fill:#96d4ff;fill-opacity:1;fill-rule:nonzero;stroke:none" d="M 0,0 1.758,-3.563 5.69,-4.134 2.845,-6.907 3.517,-10.823 0,-8.974 l -3.517,-1.849 0.672,3.916 -2.845,2.773 3.932,0.571 L 0,0 Z"></path></g><g transform="translate(325.9826,235.3508)" id="g116"><path id="path118" class="transparent animated vpc-svg delay-1 fadeIn" data-vp-add-class="fadeIn" style="fill:#96d4ff;fill-opacity:1;fill-rule:nonzero;stroke:none" d="M 0,0 1.758,-3.563 5.69,-4.134 2.845,-6.907 3.517,-10.823 0,-8.974 l -3.517,-1.849 0.672,3.916 -2.845,2.773 3.932,0.571 L 0,0 Z"></path></g><g transform="translate(343.0995,235.3508)" id="g120"><path id="path122" class="transparent animated vpc-svg delay-1 fadeIn" data-vp-add-class="fadeIn" style="fill:#96d4ff;fill-opacity:1;fill-rule:nonzero;stroke:none" d="M 0,0 1.758,-3.563 5.69,-4.134 2.845,-6.907 3.517,-10.823 0,-8.974 l -3.517,-1.849 0.672,3.916 -2.845,2.773 3.932,0.571 L 0,0 Z"></path></g><g transform="translate(360.2165,235.3508)" id="g124"><path id="path126" class="transparent animated vpc-svg delay-1 fadeIn" data-vp-add-class="fadeIn" style="fill:#96d4ff;fill-opacity:1;fill-rule:nonzero;stroke:none" d="M 0,0 1.758,-3.563 5.69,-4.134 2.845,-6.907 3.517,-10.823 0,-8.974 l -3.517,-1.849 0.672,3.916 -2.845,2.773 3.932,0.571 L 0,0 Z"></path></g><g transform="translate(377.3334,235.3508)" id="g128"><path id="path130" class="transparent animated vpc-svg delay-1 fadeIn" data-vp-add-class="fadeIn" style="fill:#96d4ff;fill-opacity:1;fill-rule:nonzero;stroke:none" d="M 0,0 1.758,-3.563 5.69,-4.134 2.845,-6.907 3.517,-10.823 0,-8.974 l -3.517,-1.849 0.672,3.916 -2.845,2.773 3.932,0.571 L 0,0 Z"></path></g><g transform="translate(246.9719,156.9431)" id="g132"><path id="path134" style="fill:#fff;fill-opacity:1;fill-rule:nonzero;stroke:#1f7edd;stroke-width:2.80500007;stroke-linecap:butt;stroke-linejoin:round;stroke-miterlimit:10;stroke-dasharray:none;stroke-opacity:1" d="m 0,0 0,22.292 c 0,7.819 -5.333,11.631 -5.333,11.631 0,0 2.924,12.266 -6.091,19.497 -10.512,8.43 -19.055,1.844 -19.055,1.844 -4.765,4.96 -12.199,11.914 -24.722,10.762 C -66.163,65.017 -77.8,58.002 -77.8,45.258 c 0,-0.213 0.012,-1.319 0.021,-1.53 l -0.021,0.89 c 0,0 -9.946,-7.117 -9.946,-23.231 l 0,-21.922"></path></g><g transform="translate(191.9855,98.7258)" id="g136"><path id="path138" style="fill:#fff;fill-opacity:1;fill-rule:nonzero;stroke:#1f7edd;stroke-width:2.80500007;stroke-linecap:butt;stroke-linejoin:round;stroke-miterlimit:10;stroke-dasharray:none;stroke-opacity:1" d="m 0,0 0,-7.749 c -27.427,0 -29.886,-25.076 -29.886,-39.745 l 0,-24.294 82.308,0 0,24.294 c 0,14.919 -2.769,39.964 -30.503,39.964 l 0,7.53"></path></g><g transform="translate(241.6389,157.8385)" id="g140"><path id="path142" style="fill:#fff;fill-opacity:1;fill-rule:nonzero;stroke:#1f7edd;stroke-width:2.80500007;stroke-linecap:butt;stroke-linejoin:round;stroke-miterlimit:10;stroke-dasharray:none;stroke-opacity:1" d="M 0,0 C 5.891,0 10.666,-4.775 10.666,-10.666 10.666,-16.557 5.891,-21.332 0,-21.332"></path></g><g transform="translate(164.5584,136.5067)" id="g144"><path id="path146" style="fill:#fff;fill-opacity:1;fill-rule:nonzero;stroke:#1f7edd;stroke-width:2.80500007;stroke-linecap:butt;stroke-linejoin:round;stroke-miterlimit:10;stroke-dasharray:none;stroke-opacity:1" d="m 0,0 c -5.891,0 -10.666,4.775 -10.666,10.666 0,5.891 4.775,10.666 10.666,10.666"></path></g><g transform="translate(241.6389,175.4577)" id="g148"><path id="path150" style="fill:#fff;fill-opacity:1;fill-rule:nonzero;stroke:none" d="M 0,0 0,-44.509 C 0,-58.37 -13.541,-77.627 -35.057,-77.627 l -6.657,0 c -19.362,0 -35.058,13.756 -35.058,33.118 l 0.02,52.765 c 0,-6.53 8.382,-13.421 21.059,-12.08 16.932,1.791 25.424,14.775 27.661,22.584 C -16.445,4.231 0,0 0,0"></path></g><g transform="translate(241.6389,175.4577)" id="g152"><path id="path154" style="fill:none;stroke:#1f7edd;stroke-width:2.80500007;stroke-linecap:butt;stroke-linejoin:round;stroke-miterlimit:10;stroke-dasharray:none;stroke-opacity:1" d="M 0,0 0,-44.509 C 0,-58.37 -13.541,-77.627 -35.057,-77.627 l -6.657,0 c -19.362,0 -35.058,13.756 -35.058,33.118 l 0.02,52.765 c 0,-6.53 8.382,-13.421 21.059,-12.08 16.932,1.791 25.424,14.775 27.661,22.584 C -16.445,4.231 0,0 0,0 Z"></path></g><g transform="translate(226.2267,147.1726)" id="g156"><path id="path158" style="fill:#1f7edd;fill-opacity:1;fill-rule:nonzero;stroke:none" d="m 0,0 c 0,-2.229 -1.807,-4.036 -4.036,-4.036 -2.229,0 -4.036,1.807 -4.036,4.036 0,2.229 1.807,4.036 4.036,4.036 C -1.807,4.036 0,2.229 0,0"></path></g><g transform="translate(188.7695,147.1726)" id="g160"><path id="path162" style="fill:#1f7edd;fill-opacity:1;fill-rule:nonzero;stroke:none" d="m 0,0 c 0,-2.229 -1.807,-4.036 -4.036,-4.036 -2.229,0 -4.036,1.807 -4.036,4.036 0,2.229 1.807,4.036 4.036,4.036 C -1.807,4.036 0,2.229 0,0"></path></g><g transform="translate(180.7285,158.7339)" id="g164"><path id="path166" style="fill:#fff;fill-opacity:1;fill-rule:nonzero;stroke:#96d4ff;stroke-width:3;stroke-linecap:butt;stroke-linejoin:miter;stroke-miterlimit:10;stroke-dasharray:none;stroke-opacity:1" d="M 0,0 9.115,0"></path></g><g transform="translate(216.9911,158.7339)" id="g168"><path id="path170" style="fill:#fff;fill-opacity:1;fill-rule:nonzero;stroke:#96d4ff;stroke-width:3;stroke-linecap:butt;stroke-linejoin:miter;stroke-miterlimit:10;stroke-dasharray:none;stroke-opacity:1" d="M 0,0 9.115,0"></path></g><g transform="translate(193.9239,105.8778)" id="g172"><path id="path174" style="fill:none;stroke:#1f7edd;stroke-width:2.80500007;stroke-linecap:round;stroke-linejoin:miter;stroke-miterlimit:10;stroke-dasharray:none;stroke-opacity:1" d="M 0,0 0,-5.738"></path></g><g transform="translate(202.8776,105.8778)" id="g176"><path id="path178" style="fill:none;stroke:#1f7edd;stroke-width:2.80500007;stroke-linecap:round;stroke-linejoin:miter;stroke-miterlimit:10;stroke-dasharray:none;stroke-opacity:1" d="M 0,0 0,-5.738"></path></g><g transform="translate(211.8313,105.8778)" id="g180"><path id="path182" style="fill:none;stroke:#1f7edd;stroke-width:2.80500007;stroke-linecap:round;stroke-linejoin:miter;stroke-miterlimit:10;stroke-dasharray:none;stroke-opacity:1" d="M 0,0 0,-5.738"></path></g><g transform="translate(213.9046,90.6126)" id="g184"><path id="path186" style="fill:none;stroke:#1f7edd;stroke-width:2.80500007;stroke-linecap:butt;stroke-linejoin:round;stroke-miterlimit:10;stroke-dasharray:none;stroke-opacity:1" d="m 0,0 0,0 c 0,-5.521 -4.476,-9.997 -9.997,-9.997 l -2.06,0 c -5.521,0 -9.997,4.476 -9.997,9.997"></path></g><g transform="translate(218.5838,90.153)" id="g188"><path id="path190" style="fill:none;stroke:#1f7edd;stroke-width:2.80500007;stroke-linecap:butt;stroke-linejoin:round;stroke-miterlimit:10;stroke-dasharray:none;stroke-opacity:1" d="M 0,0 0,-1.001 C 0,-8.865 -6.375,-15.24 -14.239,-15.24 l -2.934,0 c -7.864,0 -14.239,6.375 -14.239,14.239"></path></g><g transform="translate(175.4372,53.7103)" id="g192"><path id="path194" style="fill:none;stroke:#1f7edd;stroke-width:2.80500007;stroke-linecap:butt;stroke-linejoin:round;stroke-miterlimit:10;stroke-dasharray:none;stroke-opacity:1" d="M 0,0 0,-26.772"></path></g><g transform="translate(231.4569,53.7103)" id="g196"><path id="path198" style="fill:none;stroke:#1f7edd;stroke-width:2.80500007;stroke-linecap:butt;stroke-linejoin:round;stroke-miterlimit:10;stroke-dasharray:none;stroke-opacity:1" d="M 0,0 0,-26.772"></path></g><g transform="translate(198.4623,129.2329)" id="g200"><path id="path202" style="fill:#fff;fill-opacity:1;fill-rule:nonzero;stroke:#96d4ff;stroke-width:3;stroke-linecap:butt;stroke-linejoin:miter;stroke-miterlimit:10;stroke-dasharray:none;stroke-opacity:1" d="m 0,0 8.245,0 0,19.742"></path></g><g transform="translate(203.2534,74.9128)" id="g204"><path id="path206" style="fill:none;stroke:#1f7edd;stroke-width:2.80500007;stroke-linecap:butt;stroke-linejoin:round;stroke-miterlimit:10;stroke-dasharray:none;stroke-opacity:1" d="M 0,0 0,-47.975"></path></g><g transform="translate(196.5156,119.2388)" id="g208"><path id="path210" style="fill:#fff;fill-opacity:1;fill-rule:nonzero;stroke:#96d4ff;stroke-width:3;stroke-linecap:butt;stroke-linejoin:miter;stroke-miterlimit:10;stroke-dasharray:none;stroke-opacity:1" d="m 0,0 c 1.964,-1.194 4.271,-1.882 6.738,-1.882 2.467,0 4.773,0.688 6.738,1.882"></path></g><g transform="translate(168.351,256.8897)" id="g212"><path id="path214" class="transparent animated vpc-svg delay-2 fadeIn" data-vp-add-class="fadeIn" style="fill:#96d4ff;fill-opacity:1;fill-rule:nonzero;stroke:none" d="M 0,0 1.758,-3.563 5.69,-4.134 2.845,-6.907 3.517,-10.823 0,-8.974 l -3.517,-1.849 0.672,3.916 -2.845,2.773 3.932,0.571 L 0,0 Z"></path></g><g transform="translate(185.4679,256.8897)" id="g216"><path id="path218" class="transparent animated vpc-svg delay-2 fadeIn" data-vp-add-class="fadeIn" style="fill:#96d4ff;fill-opacity:1;fill-rule:nonzero;stroke:none" d="M 0,0 1.758,-3.563 5.69,-4.134 2.845,-6.907 3.517,-10.823 0,-8.974 l -3.517,-1.849 0.672,3.916 -2.845,2.773 3.932,0.571 L 0,0 Z"></path></g><g transform="translate(202.5849,256.8897)" id="g220"><path id="path222" class="transparent animated vpc-svg delay-2 fadeIn" data-vp-add-class="fadeIn" style="fill:#96d4ff;fill-opacity:1;fill-rule:nonzero;stroke:none" d="M 0,0 1.758,-3.563 5.69,-4.134 2.845,-6.907 3.517,-10.823 0,-8.974 l -3.517,-1.849 0.672,3.916 -2.845,2.773 3.932,0.571 L 0,0 Z"></path></g><g transform="translate(219.7018,256.8897)" id="g224"><path id="path226" class="transparent animated vpc-svg delay-2 fadeIn" data-vp-add-class="fadeIn" style="fill:#96d4ff;fill-opacity:1;fill-rule:nonzero;stroke:none" d="M 0,0 1.758,-3.563 5.69,-4.134 2.845,-6.907 3.517,-10.823 0,-8.974 l -3.517,-1.849 0.672,3.916 -2.845,2.773 3.932,0.571 L 0,0 Z"></path></g><g transform="translate(236.8188,256.8897)" id="g228"><path id="path230" class="transparent animated vpc-svg delay-2 fadeIn" data-vp-add-class="fadeIn" style="fill:#96d4ff;fill-opacity:1;fill-rule:nonzero;stroke:none" d="M 0,0 1.758,-3.563 5.69,-4.134 2.845,-6.907 3.517,-10.823 0,-8.974 l -3.517,-1.849 0.672,3.916 -2.845,2.773 3.932,0.571 L 0,0 Z"></path></g><g transform="translate(341.6852,135.5647)" id="g232"><path id="path234" style="fill:none;stroke:#1f7edd;stroke-width:2.80500007;stroke-linecap:butt;stroke-linejoin:round;stroke-miterlimit:10;stroke-dasharray:none;stroke-opacity:1" d="M 0,0 8.939,0"></path></g><g transform="translate(106.6904,45.5475)" id="g236"><path id="path238" style="fill:#fff;fill-opacity:1;fill-rule:nonzero;stroke:#1f7edd;stroke-width:2.80500007;stroke-linecap:butt;stroke-linejoin:round;stroke-miterlimit:10;stroke-dasharray:none;stroke-opacity:1" d="m 0,0 c 4.455,-1.532 8.53,-1.526 11.289,0.574 4.335,3.301 -9.846,14.558 -8.851,19.915 10.178,3.098 17.259,18.597 17.259,34.086 0,17.702 -14.161,42.631 -14.161,52.679 0,19.03 -5.532,56.646 -46.025,56.646 -36.732,0 -46.469,-29.144 -46.469,-50.008 0,-10.724 -14.161,-41.614 -14.161,-58.431 0,-16.374 10.179,-32.317 19.03,-34.529 0.8,-5.585 -14.177,-16.878 -9.736,-20.358 2.367,-1.854 5.79,-2.2 9.616,-1.345"></path></g><g transform="translate(54.8322,86.0476)" id="g240"><path id="path242" style="fill:#fff;fill-opacity:1;fill-rule:nonzero;stroke:#1f7edd;stroke-width:2.80500007;stroke-linecap:butt;stroke-linejoin:round;stroke-miterlimit:10;stroke-dasharray:none;stroke-opacity:1" d="m 0,0 0,-7.666 c -12.054,-4.341 -29.567,-13.146 -29.567,-27.658 l 0,-24.035 22.128,0 37.174,0 22.127,0 0,24.035 c 0,14.759 -18.113,23.614 -30.177,27.875 l 0,7.449"></path></g><g transform="translate(103.9552,161.9597)" id="g244"><path id="path246" style="fill:#fff;fill-opacity:1;fill-rule:nonzero;stroke:#1f7edd;stroke-width:2.80500007;stroke-linecap:butt;stroke-linejoin:round;stroke-miterlimit:10;stroke-dasharray:none;stroke-opacity:1" d="m 0,0 0,-32.371 c 0,-19.155 -15.528,-44.427 -34.683,-44.427 l -6.586,0 c -19.154,0 -34.682,25.272 -34.682,44.427 l 0.019,45.854"></path></g><g transform="translate(87.0124,133.9768)" id="g248"><path id="path250" style="fill:#1f7edd;fill-opacity:1;fill-rule:nonzero;stroke:none" d="m 0,0 c 0,-1.62 -1.313,-2.933 -2.933,-2.933 -1.62,0 -2.933,1.313 -2.933,2.933 0,1.62 1.313,2.933 2.933,2.933 C -1.313,2.933 0,1.62 0,0"></path></g><g transform="translate(51.2259,133.9768)" id="g252"><path id="path254" style="fill:#1f7edd;fill-opacity:1;fill-rule:nonzero;stroke:none" d="m 0,0 c 0,-1.62 -1.313,-2.933 -2.933,-2.933 -1.62,0 -2.933,1.313 -2.933,2.933 0,1.62 1.313,2.933 2.933,2.933 C -1.313,2.933 0,1.62 0,0"></path></g><g transform="translate(43.6955,145.4146)" id="g256"><path id="path258" style="fill:#fff;fill-opacity:1;fill-rule:nonzero;stroke:#96d4ff;stroke-width:3;stroke-linecap:butt;stroke-linejoin:miter;stroke-miterlimit:10;stroke-dasharray:none;stroke-opacity:1" d="M 0,0 9.018,0"></path></g><g transform="translate(79.5706,145.4146)" id="g260"><path id="path262" style="fill:#fff;fill-opacity:1;fill-rule:nonzero;stroke:#96d4ff;stroke-width:3;stroke-linecap:butt;stroke-linejoin:miter;stroke-miterlimit:10;stroke-dasharray:none;stroke-opacity:1" d="M 0,0 9.018,0"></path></g><g transform="translate(59.3136,104.1534)" id="g264"><path id="path266" style="fill:#fff;fill-opacity:1;fill-rule:nonzero;stroke:#96d4ff;stroke-width:3;stroke-linecap:butt;stroke-linejoin:miter;stroke-miterlimit:10;stroke-dasharray:none;stroke-opacity:1" d="m 0,0 c 1.943,-1.182 4.225,-1.862 6.666,-1.862 2.441,0 4.722,0.68 6.666,1.862"></path></g><g transform="translate(70.4049,123.7624)" id="g268"><path id="path270" style="fill:#fff;fill-opacity:1;fill-rule:nonzero;stroke:#96d4ff;stroke-width:3;stroke-linecap:butt;stroke-linejoin:miter;stroke-miterlimit:10;stroke-dasharray:none;stroke-opacity:1" d="m 0,0 0,-6.842 c 0,-2.444 -1.981,-4.426 -4.425,-4.426 -2.445,0 -4.426,1.982 -4.426,4.426 l 0,6.842"></path></g><g transform="translate(76.5171,78.021)" id="g272"><path id="path274" style="fill:none;stroke:#1f7edd;stroke-width:2.7750001;stroke-linecap:butt;stroke-linejoin:round;stroke-miterlimit:10;stroke-dasharray:none;stroke-opacity:1" d="m 0,0 0,0 c 0,-5.462 -4.428,-9.89 -9.89,-9.89 l -2.038,0 c -5.462,0 -9.89,4.428 -9.89,9.89"></path></g><g transform="translate(38.4607,69.8588)" id="g276"><path id="path278" style="fill:#fff;fill-opacity:1;fill-rule:nonzero;stroke:#1f7edd;stroke-width:2.80500007;stroke-linecap:butt;stroke-linejoin:round;stroke-miterlimit:10;stroke-dasharray:none;stroke-opacity:1" d="M 0,0 0,-42.169"></path></g><g transform="translate(93.8819,69.8588)" id="g280"><path id="path282" style="fill:#fff;fill-opacity:1;fill-rule:nonzero;stroke:#1f7edd;stroke-width:2.80500007;stroke-linecap:butt;stroke-linejoin:round;stroke-miterlimit:10;stroke-dasharray:none;stroke-opacity:1" d="M 0,0 0,-42.169"></path></g><g transform="translate(28.0227,175.4422)" id="g284"><path id="path286" style="fill:none;stroke:#1f7edd;stroke-width:2.7750001;stroke-linecap:butt;stroke-linejoin:round;stroke-miterlimit:10;stroke-dasharray:none;stroke-opacity:1" d="m 0,0 c 2.52,-7.181 15.672,-17.947 33.82,-17.947 23.138,0 42.152,22.816 42.113,4.464"></path></g><g transform="translate(43.7752,135.7171)" id="g288"><path id="path290" style="fill:none;stroke:#1f7edd;stroke-width:2.7750001;stroke-linecap:round;stroke-linejoin:miter;stroke-miterlimit:10;stroke-dasharray:none;stroke-opacity:1" d="M 0,0 4.518,0"></path></g><g transform="translate(84.7536,135.7171)" id="g292"><path id="path294" style="fill:none;stroke:#1f7edd;stroke-width:2.7750001;stroke-linecap:round;stroke-linejoin:miter;stroke-miterlimit:10;stroke-dasharray:none;stroke-opacity:1" d="M 0,0 4.518,0"></path></g><g transform="translate(31.3741,238.2661)" id="g296"><path id="path298" class="transparent animated vpc-svg fadeIn" data-vp-add-class="fadeIn" style="fill:#96d4ff;fill-opacity:1;fill-rule:nonzero;stroke:none" d="M 0,0 1.758,-3.563 5.69,-4.134 2.845,-6.907 3.517,-10.823 0,-8.974 l -3.517,-1.849 0.672,3.916 -2.845,2.773 3.932,0.571 L 0,0 Z"></path></g><g transform="translate(48.491,238.2661)" id="g300"><path id="path302" class="transparent animated vpc-svg fadeIn" data-vp-add-class="fadeIn" style="fill:#96d4ff;fill-opacity:1;fill-rule:nonzero;stroke:none" d="M 0,0 1.758,-3.563 5.69,-4.134 2.845,-6.907 3.517,-10.823 0,-8.974 l -3.517,-1.849 0.672,3.916 -2.845,2.773 3.932,0.571 L 0,0 Z"></path></g><g transform="translate(65.608,238.2661)" id="g304"><path id="path306" class="transparent animated vpc-svg fadeIn" data-vp-add-class="fadeIn" style="fill:#96d4ff;fill-opacity:1;fill-rule:nonzero;stroke:none" d="M 0,0 1.758,-3.563 5.69,-4.134 2.845,-6.907 3.517,-10.823 0,-8.974 l -3.517,-1.849 0.672,3.916 -2.845,2.773 3.932,0.571 L 0,0 Z"></path></g><g transform="translate(82.7249,238.2661)" id="g308"><path id="path310" class="transparent animated vpc-svg fadeIn" data-vp-add-class="fadeIn" style="fill:#96d4ff;fill-opacity:1;fill-rule:nonzero;stroke:none" d="M 0,0 1.758,-3.563 5.69,-4.134 2.845,-6.907 3.517,-10.823 0,-8.974 l -3.517,-1.849 0.672,3.916 -2.845,2.773 3.932,0.571 L 0,0 Z"></path></g><g transform="translate(99.8419,238.2661)" id="g312"><path id="path314" class="transparent animated vpc-svg fadeIn" data-vp-add-class="fadeIn" style="fill:#96d4ff;fill-opacity:1;fill-rule:nonzero;stroke:none" d="M 0,0 1.758,-3.563 5.69,-4.134 2.845,-6.907 3.517,-10.823 0,-8.974 l -3.517,-1.849 0.672,3.916 -2.845,2.773 3.932,0.571 L 0,0 Z"></path></g></g></g></g></svg>